<svg xmlns="http://www.w3.org/2000/svg" viewBox="0 0 17.92 994.58"><defs><style>.cls-1,.cls-2{fill:none;stroke:#fff;stroke-miterlimit:10;}.cls-2{stroke-width:0.57px;}</style></defs><title>measureLines</title><g id="Layer_2" data-name="Layer 2"><g id="final_main" data-name="final main"><line class="cls-1" x1="14.96" y1="0.5" x2="0.04" y2="0.5"/><line class="cls-1" x1="14.96" y1="35.34" x2="0.04" y2="35.34"/><line class="cls-1" x1="14.96" y1="70.17" x2="0.04" y2="70.17"/><line class="cls-1" x1="14.96" y1="105.01" x2="0.04" y2="105.01"/><line class="cls-1" x1="14.96" y1="139.85" x2="0.04" y2="139.85"/><line class="cls-1" x1="14.96" y1="174.69" x2="0.04" y2="174.69"/><line class="cls-1" x1="14.96" y1="209.52" x2="0.04" y2="209.52"/><line class="cls-1" x1="14.96" y1="244.36" x2="0.04" y2="244.36"/><line class="cls-1" x1="14.96" y1="279.2" x2="0.04" y2="279.2"/><line class="cls-1" x1="14.96" y1="314.04" x2="0.04" y2="314.04"/><line class="cls-1" x1="14.96" y1="348.87" x2="0.04" y2="348.87"/><line class="cls-1" x1="14.96" y1="383.71" x2="0.04" y2="383.71"/><line class="cls-1" x1="14.96" y1="418.55" x2="0.04" y2="418.55"/><line class="cls-1" x1="14.96" y1="453.38" x2="0.04" y2="453.38"/><line class="cls-1" x1="14.96" y1="488.22" x2="0.04" y2="488.22"/><line class="cls-2" x1="4.85" y1="18.77" y2="18.77"/><line class="cls-2" x1="4.85" y1="53.61" y2="53.61"/><line class="cls-2" x1="4.85" y1="88.45" y2="88.45"/><line class="cls-2" x1="4.85" y1="123.28" y2="123.28"/><line class="cls-2" x1="4.85" y1="158.12" y2="158.12"/><line class="cls-2" x1="4.85" y1="192.96" y2="192.96"/><line class="cls-2" x1="4.85" y1="227.8" y2="227.8"/><line class="cls-2" x1="4.85" y1="262.63" y2="262.63"/><line class="cls-2" x1="4.85" y1="297.47" y2="297.47"/><line class="cls-2" x1="4.85" y1="332.31" y2="332.31"/><line class="cls-2" x1="4.85" y1="367.15" y2="367.15"/><line class="cls-2" x1="4.85" y1="401.98" y2="401.98"/><line class="cls-2" x1="4.85" y1="436.82" y2="436.82"/><line class="cls-2" x1="4.85" y1="471.66" y2="471.66"/><line class="cls-2" x1="4.85" y1="506.49" y2="506.49"/><line class="cls-1" x1="14.96" y1="488.22" x2="0.04" y2="488.31"/><line class="cls-1" x1="15.17" y1="523.06" x2="0.25" y2="523.15"/><line class="cls-1" x1="15.38" y1="557.9" x2="0.46" y2="557.99"/><line class="cls-1" x1="15.6" y1="592.73" x2="0.67" y2="592.82"/><line class="cls-1" x1="15.81" y1="627.57" x2="0.88" y2="627.66"/><line class="cls-1" x1="16.02" y1="662.41" x2="1.09" y2="662.5"/><line class="cls-1" x1="16.23" y1="697.24" x2="1.31" y2="697.33"/><line class="cls-1" x1="16.44" y1="732.08" x2="1.52" y2="732.17"/><line class="cls-1" x1="16.65" y1="766.92" x2="1.73" y2="767.01"/><line class="cls-1" x1="16.86" y1="801.75" x2="1.94" y2="801.84"/><line class="cls-1" x1="17.08" y1="836.59" x2="2.15" y2="836.68"/><line class="cls-1" x1="17.29" y1="871.43" x2="2.36" y2="871.52"/><line class="cls-1" x1="17.5" y1="906.26" x2="2.57" y2="906.35"/><line class="cls-1" x1="17.71" y1="941.1" x2="2.78" y2="941.19"/><line class="cls-1" x1="17.92" y1="975.94" x2="3" y2="976.03"/><line class="cls-2" x1="4.96" y1="506.56" x2="0.11" y2="506.59"/><line class="cls-2" x1="5.17" y1="541.39" x2="0.32" y2="541.42"/><line class="cls-2" x1="5.38" y1="576.23" x2="0.53" y2="576.26"/><line class="cls-2" x1="5.6" y1="611.07" x2="0.74" y2="611.1"/><line class="cls-2" x1="5.81" y1="645.9" x2="0.96" y2="645.93"/><line class="cls-2" x1="6.02" y1="680.74" x2="1.17" y2="680.77"/><line class="cls-2" x1="6.23" y1="715.58" x2="1.38" y2="715.61"/><line class="cls-2" x1="6.44" y1="750.41" x2="1.59" y2="750.44"/><line class="cls-2" x1="6.65" y1="785.25" x2="1.8" y2="785.28"/><line class="cls-2" x1="6.86" y1="820.09" x2="2.01" y2="820.12"/><line class="cls-2" x1="7.08" y1="854.92" x2="2.22" y2="854.95"/><line class="cls-2" x1="7.29" y1="889.76" x2="2.44" y2="889.79"/><line class="cls-2" x1="7.5" y1="924.6" x2="2.65" y2="924.63"/><line class="cls-2" x1="7.71" y1="959.43" x2="2.86" y2="959.46"/><line class="cls-2" x1="7.92" y1="994.27" x2="3.07" y2="994.3"/></g></g></svg>