<svg xmlns="http://www.w3.org/2000/svg" xmlns:xlink="http://www.w3.org/1999/xlink" viewBox="0 0 375 109.93"><defs><style>.cls-1,.cls-14{fill:none;}.cls-2{fill:#898989;}.cls-3{mix-blend-mode:multiply;}.cls-4{fill:#e9e8e3;}.cls-5{fill:#cfcfce;}.cls-6{fill:silver;}.cls-7{fill:#aeadae;}.cls-8{fill:#c2c1c0;}.cls-9{isolation:isolate;}.cls-10{fill:#fff;}.cls-11{fill:url(#New_Pattern_Swatch_15);}.cls-12{mix-blend-mode:overlay;}.cls-13{fill:url(#linear-gradient);}.cls-14{stroke:#fff;stroke-miterlimit:10;opacity:0.5;}</style><pattern id="New_Pattern_Swatch_15" data-name="New Pattern Swatch 15" width="2539.2" height="2539.2" patternTransform="translate(738.48 2038.77) scale(0.61 0.47)" patternUnits="userSpaceOnUse" viewBox="0 0 2539.2 2539.2"><rect class="cls-1" width="2539.2" height="2539.2"/><rect class="cls-2" width="2539.2" height="2539.2"/><g class="cls-3"><path class="cls-1" d="M2539.2,2503.41v35.79H2076.94L1892,2464.56l-6.24,74.64H1756l18.39-123.46-413.95,63.58,63.79-156.13-647.05,81.07,40.3,134.94H781.8l-79.61-19.56,24.39-24.59L597.47,2459.5l-5.72,55.32-2.52,24.38H467.31L301.19,2341.86,174.46,2539.2H0v-42.43l220.63-343.56,74.83,151.15,367.46-538.72L417.08,1652,22.14,1469.41,0,1479.28V708.78L273.38,835.17l31.21-13.92L603.7,687.82l.19-.09,91-40.59,184.74-82.4,48.1-21.45L470.42,0H589.67l-7.12,68.8,4.78,5.14,45.82,49.23,0,0,13.94,15,28.3,30.41,7.37,7.92L785.71,5.27,764.27,0h54.36l36.1,120.88L979.23,537.79,1010.32,552l298,135.92.19.08,90.67,41.36,184,84,47.92,21.86L1755.5,0h131.35l-12.59,150.66-69.71-50.15-36.83,330,137.69-7.5,221.21-12.05,10.72-13.71,102.73-131.35.06-.09,31.26-40,63.45-81.12,16.52-21.12L2045.2,0h494V5.92l-363.56,533,245.84,113.65L2539.2,707v724.67L1923.44,686.42l-229.52,350.31L1620.48,884.9,1248.1,1420.23l244.79,115.9,393.25,186.19,31.34-13.63L2217.8,1578l.19-.09,91.38-39.76,185.48-80.71,44.35-19.29v44.46l-1.56.69-299.1,133.42-.19.09-91,40.6-184.74,82.4-48.1,21.45Zm-45.08-1394.81L2431,1093.13l18.41-18.58-97.53-26.82-4.31,41.79-6.93,67.13,3.61,3.88,34.62,37.18,0,0,10.53,11.31,21.38,23,5.57,6Zm-243.4-510.68-100.2,351.54,157.31-3.55L2276.48,1001l245,1.27L2505.23,901.8l-26.11-161.38-10.89-6.8-104.4-65.13-.07,0L2332,648.63l-64.48-40.23Zm-315,45.78,149.52,137.78,37.62-79,19.5,29.36,62-121.37-54-17.08-86.69-27.43-6.1,3.71-58.49,35.55,0,0L1981.3,616l-36.12,22Zm-255.69,73.22,1.87,5,18,47.52v0l5.46,14.46,11.09,29.35,2.89,7.64,120.92-90.29-52.52-38.23,24.08-10.22-80.1-61.77-19.82,37Zm-1369.76,130,626.55,744.32,226.3-352.39L1238,1390l367.46-538.72L1359.62,737.6,964.68,555l-31.21,13.92L634.36,702.35l-.19.09-91,40.59-184.74,82.4ZM546.21,1467,517,1334.06l-46.9-213.51-15.05-8.26-144.25-79.17-.09,0L266.82,1009l-89.09-48.9-23.2-12.73L47,1424.18l209.76-16.48L219,1483.56Zm164,164.59L721.41,1665l91.36-101.12-47.68-30.5-76.59-49-6.86,2-65.71,19.14h0l-20,5.82-40.58,11.82-10.57,3.08,108.62,171.87Zm-23,738.91-33-53.59-52.95-86.09-7.83-1.32-75-12.63h0L495.56,2213l-46.33-7.8-12.06-2,25.56,224.55,89.08-39.1-4.95,38.86ZM1026,2028.54l-9.58-8.55-91.83-81.9-.06-.05-27.94-24.92-56.72-50.59-14.77-13.17L666.66,2178.8,822.29,2202,782,2250.94l241.24,42.82,1-101.75Zm447.53,75.79L1741,1712.19l-179-82.73-287.48-132.91-22.72,10.13L1034.1,1603.8l-.14.06-66.25,29.55-134.47,60-35,15.61,456.08,541.81L1419,1994.31Zm98.15,139.55-42.18-30.7,19.34-8.21-64.33-49.61-15.92,29.75L1443,2232.91l1.5,4,14.42,38.16v0l4.39,11.61,8.91,23.57,2.32,6.14Zm526.51,18.22,82.8-38.57,21.56-10L1914.1,1882.06l-99.57,160.79-34.91-67.69-161.92,246,111.84,49.49,179.68,79.51,14-6.52,134.06-62.46.09,0Zm284,138.23-46.37-40.72-74.5-65.42-7.72,1-74,9.83h0l-22.51,3-45.69,6.07-11.9,1.58,88.81,203.13,72.22-62.38,6.58,37.86Z"/><polygon class="cls-1" points="74.89 151.36 172.09 0 0 0 0 0.29 0.06 0.21 74.89 151.36"/><polygon class="cls-4" points="927.74 543.29 470.42 0 453.05 0 803.37 463.78 927.74 543.29"/><polygon class="cls-4" points="835.84 506.73 901.97 549.07 876.7 560.84 879.64 564.74 927.74 543.29 803.37 463.78 835.84 506.73"/><polygon class="cls-4" points="901.97 549.07 835.84 506.73 876.7 560.84 901.97 549.07"/><polygon class="cls-4" points="694.24 645.71 694.9 647.14 879.64 564.74 876.7 560.84 694.24 645.71"/><polygon class="cls-4" points="694.24 645.71 876.7 560.84 835.84 506.73 542.62 319.06 694.24 645.71"/><polygon class="cls-4" points="835.84 506.73 803.37 463.78 709.21 403.57 709.19 403.56 529.02 289.78 542.62 319.06 835.84 506.73"/><path class="cls-4" d="M435.75,34.48s2.19-26.14,10.57-29.21S707.23,400.45,709.19,403.56h0l94.17,60.21L453,0H394.51L529,289.78Z"/><path class="cls-5" d="M446.31,5.27c-8.37,3.07-10.57,29.21-10.57,29.21L529,289.78,709.19,403.56C707.23,400.45,454.66,2.19,446.31,5.27Z"/><polygon class="cls-4" points="603.89 687.74 694.9 647.14 694.24 645.71 603.89 687.74"/><polygon class="cls-4" points="542.62 319.06 539.5 317.06 304.59 821.25 603.7 687.82 603.89 687.74 694.24 645.71 542.62 319.06"/><polygon class="cls-4" points="542.62 319.06 529.02 289.78 371.89 625 273.38 835.16 304.59 821.25 539.5 317.06 542.62 319.06"/><polygon class="cls-6" points="529.02 289.78 394.51 0 319.19 0 365.75 520.05 529.02 289.78"/><path class="cls-6" d="M301.19,388.55S370.82,591.49,371.89,625L529,289.78,365.75,520.05,319.19,0h-23.4L286,364.39Z"/><path class="cls-4" d="M301.19,388.55,286,364.39,273.38,835.17,371.89,625C370.82,591.49,301.19,388.55,301.19,388.55Z"/><polygon class="cls-7" points="202 116.36 201.99 116.36 146.35 294.4 146.94 296.91 156.92 317.06 157.53 318.2 215.13 251.55 286.01 364.39 295.79 0 280.05 0 273.38 63.39 202 116.36"/><polygon class="cls-5" points="273.38 63.39 280.05 0 238.37 0 202 116.36 273.38 63.39"/><polygon class="cls-5" points="75.11 151.8 96.37 194.76 201.99 116.36 202 116.36 238.37 0 173.37 0 79.05 148.36 75.11 151.8"/><polygon class="cls-5" points="75.11 151.8 79.05 148.36 173.37 0 172.09 0 74.89 151.36 75.11 151.8"/><polygon class="cls-4" points="215.13 251.55 169.42 340.44 157.53 318.2 157.25 318.53 273.38 835.16 286.01 364.39 215.13 251.55"/><polygon class="cls-4" points="153.13 323.28 273.38 835.16 157.25 318.53 153.13 323.28"/><polygon class="cls-4" points="117.97 363.98 273.38 835.16 153.13 323.28 117.97 363.98"/><polygon class="cls-4" points="153.13 323.28 146.94 296.91 145.96 294.93 60.18 409.6 273.38 835.16 117.97 363.98 153.13 323.28"/><polygon class="cls-5" points="60.18 409.6 0 490.06 0 708.78 273.38 835.16 60.18 409.6"/><polygon class="cls-5" points="215.13 251.55 157.53 318.2 169.42 340.44 215.13 251.55"/><polygon class="cls-5" points="201.99 116.36 96.37 194.76 145.96 294.93 146.35 294.4 201.99 116.36"/><polygon class="cls-7" points="157.53 318.2 156.92 317.06 157.25 318.53 157.53 318.2"/><polygon class="cls-4" points="157.25 318.53 156.92 317.06 146.94 296.91 153.13 323.28 157.25 318.53"/><polygon class="cls-4" points="146.35 294.4 145.96 294.93 146.94 296.91 146.35 294.4"/><polygon class="cls-4" points="145.96 294.93 96.37 194.76 0 266.27 0 289.46 60.18 409.6 145.96 294.93"/><polygon class="cls-4" points="75.11 151.8 0 217.5 0 266.27 96.37 194.76 75.11 151.8"/><polygon class="cls-4" points="74.89 151.36 0.06 0.21 0 2.1 0 217.5 75.11 151.8 74.89 151.36"/><polygon class="cls-5" points="0 289.46 0 490.06 60.18 409.6 0 289.46"/><polygon class="cls-6" points="0 0.29 0 2.1 0.06 0.21 0 0.29"/><polygon class="cls-4" points="434.69 926.4 310.31 846.89 936.87 1591.21 434.69 926.4"/><polygon class="cls-4" points="402.22 883.45 336.09 841.1 361.36 829.34 358.42 825.44 310.31 846.89 434.69 926.4 402.22 883.45"/><polygon class="cls-4" points="336.09 841.1 402.22 883.45 361.36 829.34 336.09 841.1"/><polygon class="cls-4" points="543.82 744.47 543.15 743.04 358.42 825.44 361.36 829.34 543.82 744.47"/><polygon class="cls-4" points="543.82 744.47 361.36 829.34 402.22 883.45 695.44 1071.11 543.82 744.47"/><polygon class="cls-4" points="528.87 986.62 709.04 1100.4 695.44 1071.11 402.22 883.45 434.69 926.4 528.85 986.61 528.87 986.62"/><path class="cls-4" d="M802.31,1355.7s-2.19,26.14-10.57,29.21S530.83,989.73,528.87,986.62h0L434.69,926.4l502.18,664.82L709,1100.4Z"/><path class="cls-5" d="M791.75,1384.91c8.37-3.07,10.57-29.21,10.57-29.21L709,1100.4,528.87,986.62C530.83,989.73,783.4,1388,791.75,1384.91Z"/><polygon class="cls-4" points="634.17 702.44 543.15 743.04 543.82 744.47 634.17 702.44"/><polygon class="cls-4" points="695.44 1071.11 698.56 1073.11 933.47 568.93 634.36 702.35 634.17 702.44 543.82 744.47 695.44 1071.11"/><polygon class="cls-4" points="695.44 1071.11 709.04 1100.4 866.17 765.18 964.68 555.01 933.47 568.93 698.56 1073.11 695.44 1071.11"/><polygon class="cls-6" points="709.04 1100.4 936.87 1591.21 872.31 870.13 709.04 1100.4"/><path class="cls-6" d="M936.87,1001.62s-69.63-202.94-70.7-236.45L709,1100.4,872.31,870.13l64.56,721.09L952,1025.79Z"/><path class="cls-4" d="M936.87,1001.62,952,1025.79,964.68,555,866.17,765.18C867.24,798.69,936.87,1001.62,936.87,1001.62Z"/><polygon class="cls-7" points="1036.06 1273.82 1036.07 1273.82 1091.7 1095.78 1091.12 1093.27 1081.14 1073.11 1080.53 1071.98 1022.93 1138.63 952.05 1025.79 936.87 1591.21 964.68 1326.79 1036.06 1273.82"/><polygon class="cls-5" points="964.68 1326.79 936.87 1591.21 1036.06 1273.82 964.68 1326.79"/><polygon class="cls-5" points="1162.95 1238.38 1141.69 1195.42 1036.07 1273.82 1036.06 1273.82 936.87 1591.21 1159.01 1241.82 1162.95 1238.38"/><polygon class="cls-5" points="1159.01 1241.82 936.87 1591.21 1163.17 1238.82 1162.95 1238.38 1159.01 1241.82"/><polygon class="cls-4" points="1022.93 1138.63 1068.63 1049.74 1080.53 1071.98 1080.81 1071.65 964.68 555.01 952.05 1025.79 1022.93 1138.63"/><polygon class="cls-4" points="1084.92 1066.89 964.68 555.01 1080.81 1071.65 1084.92 1066.89"/><polygon class="cls-4" points="1120.09 1026.2 964.68 555.01 1084.92 1066.89 1120.09 1026.2"/><polygon class="cls-4" points="1084.92 1066.89 1091.12 1093.27 1092.1 1095.25 1177.88 980.58 964.68 555.01 1120.09 1026.2 1084.92 1066.89"/><polygon class="cls-5" points="1359.62 737.6 964.68 555.01 1177.88 980.58 1359.62 737.6"/><polygon class="cls-5" points="1068.63 1049.74 1022.93 1138.63 1080.53 1071.98 1068.63 1049.74"/><polygon class="cls-5" points="1036.07 1273.82 1141.69 1195.42 1092.1 1095.25 1091.7 1095.78 1036.07 1273.82"/><polygon class="cls-7" points="1080.81 1071.65 1080.53 1071.98 1081.14 1073.11 1080.81 1071.65"/><polygon class="cls-4" points="1091.12 1093.27 1084.92 1066.89 1080.81 1071.65 1081.14 1073.11 1091.12 1093.27"/><polygon class="cls-4" points="1092.1 1095.25 1091.12 1093.27 1091.7 1095.78 1092.1 1095.25"/><polygon class="cls-4" points="1246.53 1117.62 1177.88 980.58 1092.1 1095.25 1141.69 1195.42 1246.53 1117.62"/><polygon class="cls-4" points="1162.95 1238.38 1245 1166.6 1246.53 1117.62 1141.69 1195.42 1162.95 1238.38"/><polygon class="cls-4" points="1162.95 1238.38 1163.17 1238.82 1238 1389.97 1245 1166.6 1162.95 1238.38"/><polygon class="cls-5" points="1246.53 1117.62 1479.54 944.69 1499.81 914.56 1605.46 851.25 1359.62 737.6 1177.88 980.58 1246.53 1117.62"/><polygon class="cls-6" points="1238 1389.97 1605.46 851.25 1245 1166.6 1238 1389.97"/><polygon class="cls-8" points="1246.53 1117.62 1245 1166.6 1605.46 851.25 1479.54 944.69 1246.53 1117.62"/><polygon class="cls-5" points="1479.54 944.69 1605.46 851.25 1499.81 914.56 1479.54 944.69"/><polygon class="cls-4" points="2419.51 1355.81 2539.2 1433.88 2539.2 1431.68 1923.44 686.42 2419.51 1355.81"/><polygon class="cls-4" points="2451.58 1399.06 2517.33 1442.01 2491.95 1453.54 2494.86 1457.47 2539.2 1438.17 2539.2 1433.88 2419.51 1355.81 2451.58 1399.06"/><polygon class="cls-4" points="2517.33 1442.01 2451.58 1399.06 2491.95 1453.54 2517.33 1442.01"/><polygon class="cls-4" points="2308.72 1536.74 2309.37 1538.17 2494.86 1457.47 2491.95 1453.54 2308.72 1536.74"/><polygon class="cls-4" points="2308.72 1536.74 2491.95 1453.54 2451.58 1399.06 2160.1 1208.72 2308.72 1536.74"/><polygon class="cls-4" points="2325.89 1294.73 2146.77 1179.3 2160.1 1208.72 2451.58 1399.06 2419.51 1355.81 2325.9 1294.74 2325.89 1294.73"/><path class="cls-4" d="M2055.84,923.16s2.43-26.12,10.83-29.12S2324,1291.6,2325.89,1294.73h0l93.61,61.07L1923.44,686.42l223.32,492.88Z"/><path class="cls-5" d="M2066.67,894c-8.4,3-10.83,29.12-10.83,29.12l90.93,256.14,179.12,115.43C2324,1291.6,2075,891.05,2066.67,894Z"/><polygon class="cls-4" points="2217.99 1577.93 2309.37 1538.17 2308.72 1536.74 2217.99 1577.93"/><polygon class="cls-4" points="2160.1 1208.72 2156.99 1206.69 1917.48 1708.7 2217.8 1578.02 2217.99 1577.93 2308.72 1536.74 2160.1 1208.72"/><polygon class="cls-4" points="2160.1 1208.72 2146.77 1179.3 1986.57 1513.07 1886.14 1722.33 1917.48 1708.7 2156.99 1206.69 2160.1 1208.72"/><polygon class="cls-6" points="2146.77 1179.3 1923.44 686.42 1981.39 1408.07 2146.77 1179.3"/><path class="cls-6" d="M1918,1276s67.77,203.57,68.53,237.08l160.19-333.77-165.37,228.77-57.95-721.65-20.36,565.26Z"/><path class="cls-4" d="M1918,1276l-15-24.3-16.94,470.64,100.43-209.25C1985.81,1479.56,1918,1276,1918,1276Z"/><polygon class="cls-7" points="1821.35 1002.9 1821.34 1002.9 1764.08 1180.42 1764.64 1182.94 1774.43 1203.18 1775.04 1204.32 1833.24 1138.2 1903.08 1251.69 1923.44 686.42 1893.21 950.58 1821.35 1002.9"/><polygon class="cls-5" points="1893.21 950.58 1923.44 686.42 1821.35 1002.9 1893.21 950.58"/><polygon class="cls-5" points="1694.14 1037.18 1715 1080.32 1821.34 1002.9 1821.35 1002.9 1923.44 686.42 1698.11 1033.77 1694.14 1037.18"/><polygon class="cls-5" points="1698.11 1033.77 1923.44 686.42 1693.92 1036.73 1694.14 1037.18 1698.11 1033.77"/><polygon class="cls-4" points="1833.24 1138.2 1786.72 1226.67 1775.04 1204.32 1774.75 1204.65 1886.14 1722.33 1903.08 1251.69 1833.24 1138.2"/><polygon class="cls-4" points="1770.59 1209.37 1886.14 1722.33 1774.75 1204.65 1770.59 1209.37"/><polygon class="cls-4" points="1735.06 1249.74 1886.14 1722.33 1770.59 1209.37 1735.06 1249.74"/><polygon class="cls-4" points="1770.59 1209.37 1764.64 1182.94 1763.68 1180.94 1676.85 1294.83 1886.14 1722.33 1735.06 1249.74 1770.59 1209.37"/><polygon class="cls-5" points="1492.89 1536.13 1886.14 1722.33 1676.85 1294.83 1492.89 1536.13"/><polygon class="cls-5" points="1786.72 1226.67 1833.24 1138.2 1775.04 1204.32 1786.72 1226.67"/><polygon class="cls-5" points="1821.34 1002.9 1715 1080.32 1763.68 1180.94 1764.08 1180.42 1821.34 1002.9"/><polygon class="cls-7" points="1774.75 1204.65 1775.04 1204.32 1774.43 1203.18 1774.75 1204.65"/><polygon class="cls-4" points="1764.64 1182.94 1770.59 1209.37 1774.75 1204.65 1774.43 1203.18 1764.64 1182.94"/><polygon class="cls-4" points="1763.68 1180.94 1764.64 1182.94 1764.08 1180.42 1763.68 1180.94"/><polygon class="cls-4" points="1609.46 1157.16 1676.85 1294.83 1763.68 1180.94 1715 1080.32 1609.46 1157.16"/><polygon class="cls-4" points="1694.14 1037.18 1611.44 1108.19 1609.46 1157.16 1715 1080.32 1694.14 1037.18"/><polygon class="cls-4" points="1694.14 1037.18 1693.92 1036.73 1620.48 884.9 1611.44 1108.19 1694.14 1037.18"/><polygon class="cls-5" points="1609.46 1157.16 1374.87 1327.95 1354.33 1357.9 1248.1 1420.23 1492.89 1536.13 1676.85 1294.83 1609.46 1157.16"/><polygon class="cls-6" points="1620.48 884.9 1248.1 1420.23 1611.44 1108.19 1620.48 884.9"/><polygon class="cls-8" points="1609.46 1157.16 1611.44 1108.19 1248.1 1420.23 1374.87 1327.95 1609.46 1157.16"/><polygon class="cls-5" points="1374.87 1327.95 1248.1 1420.23 1354.33 1357.9 1374.87 1327.95"/><polygon class="cls-4" points="1631.11 835.17 1755.5 0 1748.58 0 1608.4 689.31 1631.11 835.17"/><polygon class="cls-4" points="1597.69 742.07 1609.72 819.68 1584.17 808.51 1583.2 813.3 1631.11 835.17 1608.4 689.31 1597.69 742.07"/><polygon class="cls-4" points="1609.72 819.68 1597.69 742.07 1584.17 808.51 1609.72 819.68"/><polygon class="cls-4" points="1399.79 727.91 1399.16 729.35 1583.2 813.3 1584.17 808.51 1399.79 727.91"/><polygon class="cls-4" points="1399.79 727.91 1584.17 808.51 1597.69 742.07 1544.32 398.06 1399.79 727.91"/><polygon class="cls-4" points="1597.69 742.07 1608.4 689.31 1591.22 578.87 1591.22 578.85 1557.28 368.48 1544.32 398.06 1597.69 742.07"/><path class="cls-4" d="M1686.93,129.59s21-15.66,28.89-11.41-123.57,457.14-124.6,460.67v0l17.18,110.44L1748.58,0h-29.85L1557.28,368.48Z"/><path class="cls-5" d="M1715.82,118.18c-7.84-4.24-28.89,11.41-28.89,11.41L1557.28,368.48l33.95,210.37C1592.25,575.32,1723.65,122.41,1715.82,118.18Z"/><polygon class="cls-4" points="1308.49 687.98 1399.16 729.35 1399.79 727.91 1308.49 687.98"/><polygon class="cls-4" points="1544.32 398.06 1543.75 394.39 1010.32 551.98 1308.3 687.9 1308.49 687.98 1399.79 727.91 1544.32 398.06"/><polygon class="cls-4" points="1544.32 398.06 1557.28 368.48 1201.98 472.55 979.23 537.79 1010.32 551.98 1543.75 394.39 1544.32 398.06"/><polygon class="cls-6" points="1557.28 368.48 1718.72 0 1654.01 0 1276.59 398.48 1557.28 368.48"/><path class="cls-6" d="M1332.44,263.06S1226.39,449.57,1202,472.55l355.3-104.07-280.69,30L1654,0h-31.63L1340.51,235.68Z"/><path class="cls-4" d="M1332.44,263.06l8.07-27.37L979.23,537.79,1202,472.55C1226.39,449.57,1332.44,263.06,1332.44,263.06Z"/><polygon class="cls-7" points="1470.85 8.55 1470.84 8.54 1300.55 84.67 1299.06 86.77 1290.55 107.59 1290.11 108.8 1378.19 107.87 1340.51 235.69 1622.37 0 1595.75 0 1557.8 27 1470.85 8.55"/><polygon class="cls-5" points="1557.8 27 1595.75 0 1489.99 0 1470.85 8.55 1557.8 27"/><polygon class="cls-5" points="1470.85 8.55 1489.99 0 1430.56 0 1470.84 8.54 1470.85 8.55"/><polygon class="cls-4" points="1378.19 107.87 1281.31 132.44 1290.11 108.8 1289.67 108.81 979.23 537.79 1340.51 235.69 1378.19 107.87"/><polygon class="cls-4" points="1283.39 108.87 979.23 537.79 1289.67 108.81 1283.39 108.87"/><polygon class="cls-4" points="1229.6 109.44 979.23 537.79 1283.39 108.87 1229.6 109.44"/><polygon class="cls-4" points="1283.39 108.87 1299.06 86.77 1299.9 84.72 1157.16 96.31 979.23 537.79 1229.6 109.44 1283.39 108.87"/><polygon class="cls-5" points="854.72 120.88 979.23 537.79 1157.16 96.31 854.72 120.88"/><polygon class="cls-5" points="1378.19 107.87 1290.11 108.8 1281.31 132.44 1378.19 107.87"/><polygon class="cls-5" points="1300.55 84.67 1470.84 8.54 1430.56 0 1334.51 0 1299.9 84.72 1300.55 84.67"/><polygon class="cls-7" points="1290.11 108.8 1290.55 107.59 1289.67 108.81 1290.11 108.8"/><polygon class="cls-4" points="1289.67 108.81 1290.55 107.59 1299.06 86.77 1283.39 108.87 1289.67 108.81"/><polygon class="cls-4" points="1300.55 84.67 1299.9 84.72 1299.06 86.77 1300.55 84.67"/><polygon class="cls-4" points="1299.9 84.72 1334.51 0 1195.98 0 1157.16 96.31 1299.9 84.72"/><polygon class="cls-5" points="1157.16 96.31 1195.98 0 818.63 0 854.72 120.88 1157.16 96.31"/><polygon class="cls-4" points="1914.5 1761.28 2539.2 2503.41 2539.2 2503.16 2038.87 1840.79 1914.5 1761.28"/><polygon class="cls-4" points="2006.41 1797.84 1940.27 1755.5 1965.54 1743.73 1962.6 1739.83 1914.5 1761.28 2038.87 1840.79 2006.41 1797.84"/><polygon class="cls-4" points="1940.27 1755.5 2006.41 1797.84 1965.54 1743.73 1940.27 1755.5"/><polygon class="cls-4" points="2148 1658.86 2147.34 1657.43 1962.6 1739.83 1965.54 1743.73 2148 1658.86"/><polygon class="cls-4" points="1965.54 1743.73 2006.41 1797.84 2299.62 1985.51 2148 1658.86 1965.54 1743.73"/><polygon class="cls-4" points="2038.87 1840.79 2133.03 1901 2133.05 1901.02 2313.22 2014.8 2299.62 1985.51 2006.41 1797.84 2038.87 1840.79"/><path class="cls-4" d="M2406.49,2270.09s-2.19,26.14-10.57,29.21S2135,1904.12,2133,1901h0l-94.17-60.21,500.33,662.37v-1.53l-226-486.83Z"/><path class="cls-5" d="M2395.93,2299.31c8.37-3.07,10.57-29.21,10.57-29.21l-93.27-255.3L2133,1901C2135,1904.12,2387.58,2302.38,2395.93,2299.31Z"/><polygon class="cls-4" points="2238.35 1616.84 2147.34 1657.43 2148 1658.86 2238.35 1616.84"/><polygon class="cls-4" points="2299.62 1985.51 2302.74 1987.51 2537.65 1483.33 2238.54 1616.75 2238.35 1616.84 2148 1658.86 2299.62 1985.51"/><polygon class="cls-4" points="2302.74 1987.51 2299.62 1985.51 2313.22 2014.8 2470.35 1679.57 2539.2 1532.68 2539.2 1482.63 2537.65 1483.33 2302.74 1987.51"/><polygon class="cls-6" points="2313.22 2014.8 2539.2 2501.63 2539.2 2484.98 2476.49 1784.52 2313.22 2014.8"/><path class="cls-6" d="M2313.22,2014.8l163.27-230.28L2539.2,2485V1910.61c-11-32.42-67.89-200.78-68.85-231Z"/><path class="cls-4" d="M2539.2,1910.61V1532.68l-68.85,146.89C2471.32,1709.82,2528.17,1878.18,2539.2,1910.61Z"/><polygon class="cls-4" points="450.26 2539.2 467.31 2539.2 301.19 2341.86 450.26 2539.2"/><polygon class="cls-4" points="392.8 2539.2 450.26 2539.2 301.19 2341.86 392.8 2539.2"/><polygon class="cls-6" points="318.86 2539.2 392.8 2539.2 301.19 2341.86 318.86 2539.2"/><polygon class="cls-6" points="295.89 2539.2 318.86 2539.2 301.19 2341.86 295.89 2539.2"/><polygon class="cls-7" points="280.43 2539.2 295.89 2539.2 301.19 2341.86 280.43 2539.2"/><polygon class="cls-5" points="239.52 2539.2 280.43 2539.2 301.19 2341.86 239.52 2539.2"/><polygon class="cls-5" points="175.72 2539.2 239.52 2539.2 301.19 2341.86 175.72 2539.2"/><polygon class="cls-5" points="174.46 2539.2 175.72 2539.2 301.19 2341.86 174.46 2539.2"/><polygon class="cls-4" points="1749.33 2539.2 1756.05 2539.2 1774.43 2415.75 1749.33 2539.2"/><polygon class="cls-4" points="1720.34 2539.2 1749.33 2539.2 1774.43 2415.75 1720.34 2539.2"/><polygon class="cls-6" points="1657.5 2539.2 1720.34 2539.2 1774.43 2415.75 1657.5 2539.2"/><polygon class="cls-6" points="1626.79 2539.2 1657.5 2539.2 1774.43 2415.75 1626.79 2539.2"/><polygon class="cls-7" points="1600.94 2539.2 1626.79 2539.2 1774.43 2415.75 1600.94 2539.2"/><polygon class="cls-5" points="1498.25 2539.2 1600.94 2539.2 1774.43 2415.75 1498.25 2539.2"/><polygon class="cls-5" points="1365.48 2480.45 1360.3 2479.78 1342.17 2524.14 1413.16 2539.2 1498.25 2539.2 1774.43 2415.75 1365.48 2480.45"/><polygon class="cls-5" points="1365.48 2480.45 1774.43 2415.75 1360.49 2479.32 1360.3 2479.78 1365.48 2480.45"/><polygon class="cls-5" points="1336.02 2539.2 1413.16 2539.2 1342.17 2524.14 1336.02 2539.2"/><polygon class="cls-4" points="1214.46 2497.05 1197.47 2539.2 1336.02 2539.2 1342.17 2524.14 1214.46 2497.05"/><polygon class="cls-4" points="1214.46 2497.05 1342.17 2524.14 1360.3 2479.78 1252.19 2465.78 1214.46 2497.05"/><polygon class="cls-4" points="1360.3 2479.78 1360.49 2479.32 1424.28 2323.19 1252.19 2465.78 1360.3 2479.78"/><polygon class="cls-5" points="930.6 2436.82 894.6 2441.56 777.22 2404.26 817.52 2539.2 1197.47 2539.2 1214.46 2497.05 930.6 2436.82"/><polygon class="cls-6" points="1424.28 2323.19 777.22 2404.26 1252.19 2465.78 1424.28 2323.19"/><polygon class="cls-8" points="1214.46 2497.05 1252.19 2465.78 777.22 2404.26 930.6 2436.82 1214.46 2497.05"/><polygon class="cls-5" points="930.6 2436.82 777.22 2404.26 894.6 2441.56 930.6 2436.82"/><polygon class="cls-4" points="0 1479.28 0 1516.63 22.14 1469.41 0 1479.28"/><polygon class="cls-6" points="0 1925.05 0 2294.3 9.51 1940.18 0 1925.05"/><polygon class="cls-4" points="22.14 1469.41 0 1516.63 0 1925.05 9.51 1940.18 22.14 1469.41"/><polygon class="cls-7" points="93.51 2188.21 93.53 2188.21 149.16 2010.17 148.58 2007.66 138.6 1987.51 137.98 1986.37 80.39 2053.02 9.51 1940.18 0 2294.3 0 2451.67 22.14 2241.18 93.51 2188.21"/><polygon class="cls-5" points="22.14 2241.18 0 2451.67 0 2487.45 93.51 2188.21 22.14 2241.18"/><polygon class="cls-5" points="220.41 2152.77 199.15 2109.82 93.53 2188.21 93.51 2188.21 0 2487.45 0 2496.68 216.47 2156.21 220.41 2152.77"/><polygon class="cls-5" points="220.41 2152.77 216.47 2156.21 0 2496.68 0 2496.77 220.63 2153.21 220.41 2152.77"/><polygon class="cls-4" points="80.39 2053.02 126.09 1964.13 137.98 1986.37 138.26 1986.04 22.14 1469.41 9.51 1940.18 80.39 2053.02"/><polygon class="cls-4" points="142.38 1981.29 22.14 1469.41 138.26 1986.04 142.38 1981.29"/><polygon class="cls-4" points="177.55 1940.59 22.14 1469.41 142.38 1981.29 177.55 1940.59"/><polygon class="cls-4" points="142.38 1981.29 148.58 2007.66 149.56 2009.65 235.34 1894.97 22.14 1469.41 177.55 1940.59 142.38 1981.29"/><polygon class="cls-5" points="417.08 1651.99 22.14 1469.41 235.34 1894.97 417.08 1651.99"/><polygon class="cls-5" points="80.39 2053.02 137.98 1986.37 126.09 1964.13 80.39 2053.02"/><polygon class="cls-5" points="149.16 2010.17 93.53 2188.21 199.15 2109.82 149.56 2009.65 149.16 2010.17"/><polygon class="cls-7" points="137.98 1986.37 138.6 1987.51 138.26 1986.04 137.98 1986.37"/><polygon class="cls-4" points="138.26 1986.04 138.6 1987.51 148.58 2007.66 142.38 1981.29 138.26 1986.04"/><polygon class="cls-4" points="148.58 2007.66 149.16 2010.17 149.56 2009.65 148.58 2007.66"/><polygon class="cls-4" points="235.34 1894.97 149.56 2009.65 199.15 2109.82 303.98 2032.02 235.34 1894.97"/><polygon class="cls-4" points="303.98 2032.02 199.15 2109.82 220.41 2152.77 302.45 2081 303.98 2032.02"/><polygon class="cls-4" points="220.41 2152.77 220.63 2153.21 295.46 2304.37 302.45 2081 220.41 2152.77"/><polygon class="cls-5" points="303.98 2032.02 537 1859.08 557.27 1828.95 662.92 1765.64 417.08 1651.99 235.34 1894.97 303.98 2032.02"/><polygon class="cls-6" points="295.46 2304.37 662.92 1765.64 302.45 2081 295.46 2304.37"/><polygon class="cls-8" points="303.98 2032.02 302.45 2081 662.92 1765.64 537 1859.08 303.98 2032.02"/><polygon class="cls-5" points="537 1859.08 662.92 1765.64 557.27 1828.95 537 1859.08"/><polygon class="cls-4" points="798.22 1709.01 1254.3 2250.82 888.75 1766.89 798.22 1709.01"/><polygon class="cls-4" points="865.12 1735.62 816.98 1704.8 835.38 1696.24 833.24 1693.4 798.22 1709.01 888.75 1766.89 865.12 1735.62"/><polygon class="cls-4" points="816.98 1704.8 865.12 1735.62 835.38 1696.24 816.98 1704.8"/><polygon class="cls-4" points="968.19 1634.46 967.71 1633.42 833.24 1693.4 835.38 1696.24 968.19 1634.46"/><polygon class="cls-4" points="968.19 1634.46 835.38 1696.24 865.12 1735.62 1078.56 1872.23 968.19 1634.46"/><polygon class="cls-4" points="865.12 1735.62 888.75 1766.89 957.3 1810.72 957.31 1810.73 1088.46 1893.55 1078.56 1872.23 865.12 1735.62"/><path class="cls-4" d="M1156.36,2079.39s-1.6,19-7.69,21.26S958.74,1813,957.31,1810.73h0l-68.54-43.83,365.55,483.93-165.84-357.27Z"/><path class="cls-5" d="M1148.66,2100.65c6.1-2.24,7.69-21.26,7.69-21.26l-67.9-185.84-131.15-82.82C958.74,1813,1142.59,2102.89,1148.66,2100.65Z"/><polygon class="cls-4" points="1033.96 1603.87 967.71 1633.42 968.19 1634.46 1033.96 1603.87"/><polygon class="cls-4" points="1078.56 1872.23 1080.83 1873.69 1251.82 1506.68 1034.1 1603.8 1033.96 1603.87 968.19 1634.46 1078.56 1872.23"/><polygon class="cls-4" points="1078.56 1872.23 1088.46 1893.55 1202.84 1649.53 1274.55 1496.55 1251.82 1506.68 1080.83 1873.69 1078.56 1872.23"/><polygon class="cls-6" points="1088.46 1893.55 1254.3 2250.82 1207.31 1725.93 1088.46 1893.55"/><path class="cls-6" d="M1254.3,1821.65s-50.68-147.72-51.46-172.11l-114.38,244,118.85-167.62,47,524.89,11.05-411.58Z"/><path class="cls-4" d="M1254.3,1821.65l11.05,17.59,9.19-342.69-71.71,153C1203.62,1673.93,1254.3,1821.65,1254.3,1821.65Z"/><polygon class="cls-7" points="1326.5 2019.78 1326.51 2019.78 1367.01 1890.18 1366.58 1888.36 1359.32 1873.69 1358.87 1872.86 1316.94 1921.37 1265.35 1839.24 1254.3 2250.82 1274.55 2058.34 1326.5 2019.78"/><polygon class="cls-5" points="1274.55 2058.34 1254.3 2250.82 1326.5 2019.78 1274.55 2058.34"/><polygon class="cls-5" points="1418.87 1993.98 1403.4 1962.72 1326.51 2019.78 1326.5 2019.78 1254.3 2250.82 1416.01 1996.49 1418.87 1993.98"/><polygon class="cls-5" points="1416.01 1996.49 1254.3 2250.82 1419.03 1994.31 1418.87 1993.98 1416.01 1996.49"/><polygon class="cls-4" points="1316.94 1921.37 1350.22 1856.67 1358.87 1872.86 1359.08 1872.62 1274.55 1496.55 1265.35 1839.24 1316.94 1921.37"/><polygon class="cls-4" points="1362.07 1869.16 1274.55 1496.55 1359.08 1872.62 1362.07 1869.16"/><polygon class="cls-4" points="1387.67 1839.53 1274.55 1496.55 1362.07 1869.16 1387.67 1839.53"/><polygon class="cls-4" points="1362.07 1869.16 1366.58 1888.36 1367.3 1889.8 1429.74 1806.33 1274.55 1496.55 1387.67 1839.53 1362.07 1869.16"/><polygon class="cls-5" points="1562.03 1629.46 1274.55 1496.55 1429.74 1806.33 1562.03 1629.46"/><polygon class="cls-5" points="1316.94 1921.37 1358.87 1872.86 1350.22 1856.67 1316.94 1921.37"/><polygon class="cls-5" points="1367.01 1890.18 1326.51 2019.78 1403.4 1962.72 1367.3 1889.8 1367.01 1890.18"/><polygon class="cls-7" points="1358.87 1872.86 1359.32 1873.69 1359.08 1872.62 1358.87 1872.86"/><polygon class="cls-4" points="1359.08 1872.62 1359.32 1873.69 1366.58 1888.36 1362.07 1869.16 1359.08 1872.62"/><polygon class="cls-4" points="1366.58 1888.36 1367.01 1890.18 1367.3 1889.8 1366.58 1888.36"/><polygon class="cls-4" points="1429.74 1806.33 1367.3 1889.8 1403.4 1962.72 1479.71 1906.09 1429.74 1806.33"/><polygon class="cls-4" points="1403.4 1962.72 1418.87 1993.98 1478.59 1941.74 1479.71 1906.09 1403.4 1962.72"/><polygon class="cls-4" points="1478.59 1941.74 1418.87 1993.98 1419.03 1994.31 1473.5 2104.33 1478.59 1941.74"/><polygon class="cls-5" points="1479.71 1906.09 1649.32 1780.2 1664.08 1758.27 1740.98 1712.19 1562.03 1629.46 1429.74 1806.33 1479.71 1906.09"/><polygon class="cls-6" points="1473.5 2104.33 1740.98 1712.19 1478.59 1941.74 1473.5 2104.33"/><polygon class="cls-8" points="1479.71 1906.09 1478.59 1941.74 1740.98 1712.19 1649.32 1780.2 1479.71 1906.09"/><polygon class="cls-5" points="1649.32 1780.2 1740.98 1712.19 1664.08 1758.27 1649.32 1780.2"/><polygon class="cls-4" points="2202.52 2213.49 1914.1 1882.06 2145.78 2178.52 2202.52 2213.49"/><polygon class="cls-4" points="2160.75 2197.67 2190.93 2216.3 2179.6 2221.8 2180.96 2223.54 2202.52 2213.49 2145.78 2178.52 2160.75 2197.67"/><polygon class="cls-4" points="2160.75 2197.67 2179.6 2221.8 2190.93 2216.3 2160.75 2197.67"/><polygon class="cls-4" points="2179.6 2221.8 2097.85 2261.47 2098.16 2262.11 2180.96 2223.54 2179.6 2221.8"/><polygon class="cls-4" points="2026.97 2115.11 2097.85 2261.47 2179.6 2221.8 2160.75 2197.67 2026.97 2115.11"/><polygon class="cls-4" points="2145.78 2178.52 2102.81 2152.03 2102.81 2152.02 2020.61 2101.98 2026.97 2115.11 2160.75 2197.67 2145.78 2178.52"/><path class="cls-4" d="M1976.6,1987.4s.8-11.82,4.55-13.27,120.74,176.5,121.65,177.89h0l43,26.49L1914.1,1882.06,2020.61,2102Z"/><path class="cls-5" d="M1981.16,1974.14c-3.76,1.45-4.55,13.27-4.55,13.27l44,114.58,82.19,50C2101.9,2150.63,1984.9,1972.69,1981.16,1974.14Z"/><polygon class="cls-4" points="2057.36 2281.11 2098.16 2262.11 2097.85 2261.47 2057.36 2281.11"/><polygon class="cls-4" points="2026.97 2115.11 2025.54 2114.23 1923.22 2343.62 2057.28 2281.16 2057.36 2281.11 2097.85 2261.47 2026.97 2115.11"/><polygon class="cls-4" points="2026.97 2115.11 2020.61 2101.98 1952.15 2254.51 1909.23 2350.13 1923.22 2343.62 2025.54 2114.23 2026.97 2115.11"/><polygon class="cls-6" points="2020.61 2101.98 1914.1 1882.06 1948.6 2207.17 2020.61 2101.98"/><path class="cls-6" d="M1918.47,2148.27s32.94,91.11,33.68,106.24L2020.61,2102l-72,105.18-34.49-325.11-2.66,255.41Z"/><path class="cls-4" d="M1918.47,2148.27l-7-10.8-2.21,212.66,42.92-95.62C1951.42,2239.39,1918.47,2148.27,1918.47,2148.27Z"/><polygon class="cls-7" points="1871.67 2026.11 1871.67 2026.11 1847.87 2106.91 1848.15 2108.04 1852.8 2117.06 1853.09 2117.57 1878.6 2087.05 1911.44 2137.47 1914.1 1882.06 1903.51 2001.66 1871.67 2026.11"/><polygon class="cls-5" points="1903.51 2001.66 1914.1 1882.06 1871.67 2026.11 1903.51 2001.66"/><polygon class="cls-5" points="1814.64 2043.05 1824.56 2062.29 1871.67 2026.11 1871.67 2026.11 1914.1 1882.06 1816.39 2041.47 1814.64 2043.05"/><polygon class="cls-5" points="1816.39 2041.47 1914.1 1882.06 1814.54 2042.85 1814.64 2043.05 1816.39 2041.47"/><polygon class="cls-4" points="1878.6 2087.05 1858.62 2127.53 1853.09 2117.57 1852.96 2117.72 1909.23 2350.13 1911.44 2137.47 1878.6 2087.05"/><polygon class="cls-4" points="1851.14 2119.9 1909.23 2350.13 1852.96 2117.72 1851.14 2119.9"/><polygon class="cls-4" points="1835.57 2138.54 1909.23 2350.13 1851.14 2119.9 1835.57 2138.54"/><polygon class="cls-4" points="1851.14 2119.9 1848.15 2108.04 1847.69 2107.15 1809.81 2159.56 1909.23 2350.13 1835.57 2138.54 1851.14 2119.9"/><polygon class="cls-5" points="1729.55 2270.62 1909.23 2350.13 1809.81 2159.56 1729.55 2270.62"/><polygon class="cls-5" points="1858.62 2127.53 1878.6 2087.05 1853.09 2117.57 1858.62 2127.53"/><polygon class="cls-5" points="1871.67 2026.11 1824.56 2062.29 1847.69 2107.15 1847.87 2106.91 1871.67 2026.11"/><polygon class="cls-7" points="1852.96 2117.72 1853.09 2117.57 1852.8 2117.06 1852.96 2117.72"/><polygon class="cls-4" points="1848.15 2108.04 1851.14 2119.9 1852.96 2117.72 1852.8 2117.06 1848.15 2108.04"/><polygon class="cls-4" points="1847.69 2107.15 1848.15 2108.04 1847.87 2106.91 1847.69 2107.15"/><polygon class="cls-4" points="1777.8 2098.19 1809.81 2159.56 1847.69 2107.15 1824.56 2062.29 1777.8 2098.19"/><polygon class="cls-4" points="1814.64 2043.05 1778.13 2076.07 1777.8 2098.19 1824.56 2062.29 1814.64 2043.05"/><polygon class="cls-4" points="1814.64 2043.05 1814.54 2042.85 1779.63 1975.16 1778.13 2076.07 1814.64 2043.05"/><polygon class="cls-5" points="1777.8 2098.19 1673.87 2178 1664.94 2191.76 1617.71 2221.13 1729.55 2270.62 1809.81 2159.56 1777.8 2098.19"/><polygon class="cls-6" points="1779.63 1975.16 1617.71 2221.13 1778.13 2076.07 1779.63 1975.16"/><polygon class="cls-8" points="1777.8 2098.19 1778.13 2076.07 1617.71 2221.13 1673.87 2178 1777.8 2098.19"/><polygon class="cls-5" points="1673.87 2178 1617.71 2221.13 1664.94 2191.76 1673.87 2178"/><polygon class="cls-4" points="2351.38 123.58 2045.2 0 2024.59 0 2276.47 117.48 2351.38 123.58"/><polygon class="cls-4" points="2301.32 129.06 2341.17 132.33 2332.61 143.65 2334.86 144.7 2351.38 123.58 2276.47 117.48 2301.32 129.06"/><polygon class="cls-4" points="2341.17 132.33 2301.32 129.06 2332.61 143.65 2341.17 132.33"/><polygon class="cls-4" points="2270.77 225.34 2271.41 225.83 2334.86 144.7 2332.61 143.65 2270.77 225.34"/><polygon class="cls-4" points="2270.77 225.34 2332.61 143.65 2301.32 129.06 2124.66 114.56 2270.77 225.34"/><polygon class="cls-4" points="2301.32 129.06 2276.47 117.48 2219.75 112.85 2219.74 112.84 2111.56 104.63 2124.66 114.56 2301.32 129.06"/><path class="cls-4" d="M2219.75,112.85l56.72,4.63L2024.59,0h-8.87c40.77,19.77,202.6,112,204,112.84Z"/><path class="cls-4" d="M2008.72,12s-3-7.14-3.15-12h-32l138,104.63Z"/><path class="cls-5" d="M2111.56,104.63l108.19,8.22c-1.43-.82-163.26-93.08-204-112.84h-10.15c.1,4.89,3.15,12,3.15,12Z"/><polygon class="cls-4" points="2240.14 265.8 2271.41 225.83 2270.77 225.34 2240.14 265.8"/><polygon class="cls-4" points="2124.66 114.56 2122.78 114.41 2137.35 397.23 2240.08 265.88 2240.14 265.8 2270.77 225.34 2124.66 114.56"/><polygon class="cls-4" points="2124.66 114.56 2111.56 104.63 2120.82 292.9 2126.62 410.94 2137.35 397.23 2122.78 114.41 2124.66 114.56"/><polygon class="cls-6" points="2111.56 104.63 1973.57 0 1932.24 0 2093.03 247.16 2111.56 104.63"/><path class="cls-6" d="M2032.63,203.4s79.72,74.69,88.19,89.5l-9.26-188.27L2093,247.16,1932.24,0h-9.54L2020,196.15Z"/><path class="cls-4" d="M2032.63,203.4,2020,196.15l106.59,214.79-5.8-118C2112.35,278.08,2032.63,203.4,2032.63,203.4Z"/><polygon class="cls-7" points="1923.09 104.6 1923.09 104.61 1940.52 197.97 1941.38 198.96 1950.68 205.64 1951.22 206.01 1961.24 162.29 2020.03 196.15 1922.7 0 1916.91 0 1942.57 63.75 1923.09 104.6"/><polygon class="cls-5" points="1942.57 63.75 1916.91 0 1903.56 0 1923.09 104.6 1942.57 63.75"/><polygon class="cls-5" points="1874.46 150.81 1894.27 165.06 1923.09 104.61 1923.09 104.6 1903.56 0 1887.13 0 1875.41 148.32 1874.46 150.81"/><polygon class="cls-5" points="1874.46 150.81 1875.41 148.32 1887.13 0 1886.85 0 1874.26 150.66 1874.46 150.81"/><polygon class="cls-4" points="1961.24 162.29 1961.88 213.18 1951.22 206.01 1951.18 206.22 2126.62 410.94 2020.03 196.15 1961.24 162.29"/><polygon class="cls-4" points="1950.46 209.34 2126.62 410.94 1951.18 206.22 1950.46 209.34"/><polygon class="cls-4" points="1944.35 236.04 2126.62 410.94 1950.46 209.34 1944.35 236.04"/><polygon class="cls-4" points="1950.46 209.34 1941.38 198.96 1940.47 198.3 1929.23 270.34 2126.62 410.94 1944.35 236.04 1950.46 209.34"/><polygon class="cls-5" points="1905.42 422.99 2126.62 410.94 1929.23 270.34 1905.42 422.99"/><polygon class="cls-5" points="1961.24 162.29 1951.22 206.01 1961.88 213.18 1961.24 162.29"/><polygon class="cls-5" points="1940.52 197.97 1923.09 104.61 1894.27 165.06 1940.47 198.3 1940.52 197.97"/><polygon class="cls-7" points="1951.22 206.01 1950.68 205.64 1951.18 206.22 1951.22 206.01"/><polygon class="cls-4" points="1951.18 206.22 1950.68 205.64 1941.38 198.96 1950.46 209.34 1951.18 206.22"/><polygon class="cls-4" points="1941.38 198.96 1940.52 197.97 1940.47 198.3 1941.38 198.96"/><polygon class="cls-4" points="1929.23 270.34 1940.47 198.3 1894.27 165.06 1865.66 225.06 1929.23 270.34"/><polygon class="cls-4" points="1865.66 225.06 1894.27 165.06 1874.46 150.81 1854.67 202.66 1865.66 225.06"/><polygon class="cls-4" points="1874.46 150.81 1874.26 150.66 1804.55 100.51 1854.67 202.66 1874.46 150.81"/><polygon class="cls-5" points="1865.66 225.06 1802.08 358.43 1800.15 376.81 1767.72 430.49 1905.42 422.99 1929.23 270.34 1865.66 225.06"/><polygon class="cls-6" points="1804.55 100.51 1767.72 430.49 1854.67 202.66 1804.55 100.51"/><polygon class="cls-8" points="1865.66 225.06 1854.67 202.66 1767.72 430.49 1802.08 358.43 1865.66 225.06"/><polygon class="cls-5" points="1802.08 358.43 1767.72 430.49 1800.15 376.81 1802.08 358.43"/><polygon class="cls-4" points="825.06 1849.36 666.66 2178.8 817 1904.23 825.06 1849.36"/><polygon class="cls-4" points="826.71 1886.48 831.02 1857.3 838.95 1864.14 839.83 1862.53 825.06 1849.36 817 1904.23 826.71 1886.48"/><polygon class="cls-4" points="831.02 1857.3 826.71 1886.48 838.95 1864.14 831.02 1857.3"/><polygon class="cls-4" points="896.16 1913.56 896.55 1913.12 839.83 1862.53 838.95 1864.14 896.16 1913.56"/><polygon class="cls-4" points="838.95 1864.14 826.71 1886.48 807.63 2015.88 896.16 1913.56 838.95 1864.14"/><polygon class="cls-4" points="817 1904.23 810.89 1945.78 810.89 1945.78 799.69 2025.06 807.63 2015.88 826.71 1886.48 817 1904.23"/><path class="cls-4" d="M726.6,2096.38s-9.29,3.28-11.64.88,95.16-150.33,95.92-151.48h0l6.11-41.55L666.66,2178.8l133-153.74Z"/><path class="cls-5" d="M715,2097.27c2.34,2.4,11.64-.88,11.64-.88l73.08-71.32,11.2-79.27C810.13,1946.93,712.63,2094.88,715,2097.27Z"/><polygon class="cls-4" points="924.49 1938.04 896.55 1913.12 896.16 1913.56 924.49 1938.04"/><polygon class="cls-4" points="807.63 2015.88 807.42 2017.26 1016.38 2019.99 924.55 1938.09 924.49 1938.04 896.16 1913.56 807.63 2015.88"/><polygon class="cls-4" points="807.42 2017.26 807.63 2015.88 799.69 2025.06 938.77 2027.2 1025.97 2028.54 1016.38 2019.99 807.42 2017.26"/><polygon class="cls-6" points="799.69 2025.06 666.66 2178.8 903.76 2045.49 799.69 2025.06"/><path class="cls-6" d="M868.66,2087.88s58.79-55.15,70.11-60.68l-139.08-2.14,104.07,20.43L666.66,2178.8l196.06-82Z"/><path class="cls-4" d="M868.66,2087.88l-5.94,8.93L1026,2028.54l-87.2-1.34C927.46,2032.73,868.66,2087.88,868.66,2087.88Z"/><polygon class="cls-7" points="790.7 2163.84 790.7 2163.84 860.28 2155.45 861.05 2154.86 866.42 2148.34 866.71 2147.95 835 2138.49 862.73 2096.81 666.66 2178.8 761.55 2147.55 790.7 2163.84"/><polygon class="cls-5" points="761.55 2147.55 666.66 2178.8 790.7 2163.84 761.55 2147.55"/><polygon class="cls-5" points="822.41 2201.85 833.85 2187.94 790.7 2163.84 790.7 2163.84 666.66 2178.8 820.63 2201.03 822.41 2201.85"/><polygon class="cls-5" points="820.63 2201.03 666.66 2178.8 822.29 2201.99 822.41 2201.85 820.63 2201.03"/><polygon class="cls-4" points="835 2138.49 872.5 2140.45 866.71 2147.95 866.87 2147.99 1025.97 2028.54 862.73 2096.81 835 2138.49"/><polygon class="cls-4" points="869.13 2148.67 1025.97 2028.54 866.87 2147.99 869.13 2148.67"/><polygon class="cls-4" points="888.5 2154.45 1025.97 2028.54 869.13 2148.67 888.5 2154.45"/><polygon class="cls-4" points="869.13 2148.67 861.05 2154.86 860.52 2155.51 913.04 2167.21 1025.97 2028.54 888.5 2154.45 869.13 2148.67"/><polygon class="cls-5" points="1024.31 2192.01 1025.97 2028.54 913.04 2167.21 1024.31 2192.01"/><polygon class="cls-5" points="872.5 2140.45 835 2138.49 866.71 2147.95 872.5 2140.45"/><polygon class="cls-5" points="790.7 2163.84 833.85 2187.94 860.52 2155.51 860.28 2155.45 790.7 2163.84"/><polygon class="cls-7" points="866.87 2147.99 866.71 2147.95 866.42 2148.34 866.87 2147.99"/><polygon class="cls-4" points="861.05 2154.86 869.13 2148.67 866.87 2147.99 866.42 2148.34 861.05 2154.86"/><polygon class="cls-4" points="860.52 2155.51 861.05 2154.86 860.28 2155.45 860.52 2155.51"/><polygon class="cls-4" points="876.67 2211.86 913.04 2167.21 860.52 2155.51 833.85 2187.94 876.67 2211.86"/><polygon class="cls-4" points="822.41 2201.85 859.65 2218.89 876.67 2211.86 833.85 2187.94 822.41 2201.85"/><polygon class="cls-4" points="822.41 2201.85 822.29 2201.99 782.05 2250.94 859.65 2218.89 822.41 2201.85"/><polygon class="cls-5" points="876.67 2211.86 971.85 2265.03 985.3 2267.33 1023.28 2293.76 1024.31 2192.01 913.04 2167.21 876.67 2211.86"/><polygon class="cls-6" points="782.05 2250.94 1023.28 2293.76 859.65 2218.89 782.05 2250.94"/><polygon class="cls-8" points="876.67 2211.86 859.65 2218.89 1023.28 2293.76 971.85 2265.03 876.67 2211.86"/><polygon class="cls-5" points="971.85 2265.03 1023.28 2293.76 985.3 2267.33 971.85 2265.03"/><polygon class="cls-4" points="2252.09 653.38 2250.73 597.93 2150.53 949.47 2252.09 653.38"/><polygon class="cls-4" points="2258.65 634.24 2257.94 604.74 2266.92 610.14 2267.51 608.41 2250.73 597.93 2252.09 653.38 2258.65 634.24"/><polygon class="cls-4" points="2257.94 604.74 2258.65 634.24 2266.92 610.14 2257.94 604.74"/><polygon class="cls-4" points="2331.69 649.14 2331.99 648.63 2267.51 608.41 2266.92 610.14 2331.69 649.14"/><polygon class="cls-4" points="2331.69 649.14 2266.92 610.14 2258.65 634.24 2261.8 765 2331.69 649.14"/><polygon class="cls-4" points="2253.12 695.36 2255.54 775.39 2261.8 765 2258.65 634.24 2252.09 653.38 2253.12 695.36 2253.12 695.36"/><path class="cls-4" d="M2195.61,858.08s-8.6,4.81-11.32,2.85,68.27-164.3,68.83-165.56h0l-1-42-101.56,296.1,105-174.08Z"/><path class="cls-5" d="M2184.3,860.93c2.72,2,11.32-2.85,11.32-2.85l59.92-82.69-2.42-80C2252.57,696.63,2181.58,859,2184.3,860.93Z"/><polygon class="cls-4" points="2363.76 668.46 2331.99 648.63 2331.69 649.14 2363.76 668.46"/><polygon class="cls-4" points="2261.8 765 2261.84 766.39 2468.23 733.63 2363.83 668.5 2363.76 668.46 2331.69 649.14 2261.8 765"/><polygon class="cls-4" points="2261.8 765 2255.54 775.39 2392.97 753.9 2479.12 740.43 2468.23 733.63 2261.84 766.39 2261.8 765"/><polygon class="cls-6" points="2255.54 775.39 2150.53 949.47 2361.57 777.86 2255.54 775.39"/><path class="cls-6" d="M2334.17,825.6s48.58-64.33,58.79-71.7l-137.43,21.49,106,2.47-211,171.61L2329.83,835.4Z"/><path class="cls-4" d="M2334.17,825.6l-4.34,9.81,149.29-95L2393,753.9C2382.75,761.27,2334.17,825.6,2334.17,825.6Z"/><polygon class="cls-7" points="2270.23 913.68 2270.23 913.69 2337.38 893.61 2338.04 892.9 2342.22 885.55 2342.44 885.13 2309.58 881.19 2329.83 835.4 2150.53 949.47 2238.73 902.58 2270.23 913.68"/><polygon class="cls-5" points="2238.73 902.58 2150.53 949.47 2270.23 913.68 2238.73 902.58"/><polygon class="cls-5" points="2307.93 945.76 2316.84 930.11 2270.23 913.69 2270.23 913.68 2150.53 949.47 2306.03 945.26 2307.93 945.76"/><polygon class="cls-5" points="2306.03 945.26 2150.53 949.47 2307.84 945.92 2307.93 945.76 2306.03 945.26"/><polygon class="cls-4" points="2309.58 881.19 2346.87 876.75 2342.44 885.13 2342.6 885.14 2479.12 740.43 2329.83 835.4 2309.58 881.19"/><polygon class="cls-4" points="2344.95 885.43 2479.12 740.43 2342.6 885.14 2344.95 885.43"/><polygon class="cls-4" points="2365.01 887.83 2479.12 740.43 2344.95 885.43 2365.01 887.83"/><polygon class="cls-4" points="2344.95 885.43 2338.04 892.9 2337.62 893.62 2391.36 896.25 2479.12 740.43 2365.01 887.83 2344.95 885.43"/><polygon class="cls-5" points="2505.23 901.8 2479.12 740.43 2391.36 896.25 2505.23 901.8"/><polygon class="cls-5" points="2346.87 876.75 2309.58 881.19 2342.44 885.13 2346.87 876.75"/><polygon class="cls-5" points="2270.23 913.69 2316.84 930.11 2337.62 893.62 2337.38 893.61 2270.23 913.69"/><polygon class="cls-7" points="2342.6 885.14 2342.44 885.13 2342.22 885.55 2342.6 885.14"/><polygon class="cls-4" points="2338.04 892.9 2344.95 885.43 2342.6 885.14 2342.22 885.55 2338.04 892.9"/><polygon class="cls-4" points="2337.62 893.62 2338.04 892.9 2337.38 893.61 2337.62 893.62"/><polygon class="cls-4" points="2363.1 946.42 2391.36 896.25 2337.62 893.62 2316.84 930.11 2363.1 946.42"/><polygon class="cls-4" points="2307.93 945.76 2347.52 956.24 2363.1 946.42 2316.84 930.11 2307.93 945.76"/><polygon class="cls-4" points="2307.93 945.76 2307.84 945.92 2276.48 1000.99 2347.52 956.24 2307.93 945.76"/><polygon class="cls-5" points="2363.1 946.42 2465.92 982.67 2479.57 982.65 2521.48 1002.25 2505.23 901.8 2391.36 896.25 2363.1 946.42"/><polygon class="cls-6" points="2276.48 1000.99 2521.48 1002.25 2347.52 956.24 2276.48 1000.99"/><polygon class="cls-8" points="2363.1 946.42 2347.52 956.24 2521.48 1002.25 2465.92 982.67 2363.1 946.42"/><polygon class="cls-5" points="2465.92 982.67 2521.48 1002.25 2479.57 982.65 2465.92 982.67"/><polygon class="cls-4" points="154.53 947.35 46.99 1424.18 160.49 1021.27 154.53 947.35"/><polygon class="cls-4" points="167.82 995.23 164.67 955.9 177.06 962.45 177.73 960.08 154.53 947.35 160.49 1021.27 167.82 995.23"/><polygon class="cls-4" points="164.67 955.9 167.82 995.23 177.06 962.45 164.67 955.9"/><polygon class="cls-4" points="266.45 1009.68 266.82 1008.98 177.73 960.08 177.06 962.45 266.45 1009.68"/><polygon class="cls-4" points="266.45 1009.68 177.06 962.45 167.82 995.23 181.79 1169.58 266.45 1009.68"/><polygon class="cls-4" points="167.82 995.23 160.49 1021.27 165 1077.24 165 1077.25 174.2 1183.92 181.79 1169.58 167.82 995.23"/><path class="cls-4" d="M100.37,1298.79s-11.13,7.06-14.9,4.65S164.35,1079,165,1077.25h0l-4.51-56L47,1424.18,174.2,1183.92Z"/><path class="cls-5" d="M85.47,1303.44c3.77,2.42,14.9-4.65,14.9-4.65l73.83-114.88L165,1077.25C164.35,1079,81.7,1301,85.47,1303.44Z"/><polygon class="cls-4" points="310.71 1033.07 266.82 1008.98 266.45 1009.68 310.71 1033.07"/><polygon class="cls-4" points="181.79 1169.58 181.94 1171.44 455.06 1112.29 310.81 1033.12 310.71 1033.07 266.45 1009.68 181.79 1169.58"/><polygon class="cls-4" points="181.79 1169.58 174.2 1183.92 356.08 1144.97 470.11 1120.55 455.06 1112.29 181.94 1171.44 181.79 1169.58"/><polygon class="cls-6" points="174.2 1183.92 46.99 1424.18 315.95 1179.31 174.2 1183.92"/><path class="cls-6" d="M282.93,1245.09S343,1155.58,356.08,1145L174.2,1183.92l141.75-4.61L47,1424.18,277.88,1258.5Z"/><path class="cls-4" d="M282.93,1245.09l-5.06,13.42,192.23-138-114,24.42C343,1155.58,282.93,1245.09,282.93,1245.09Z"/><polygon class="cls-7" points="204.14 1367.46 204.14 1367.47 292.29 1335.65 293.12 1334.65 298.15 1324.54 298.42 1323.95 254.25 1321.14 277.88 1258.5 46.99 1424.18 161.26 1354.99 204.14 1367.46"/><polygon class="cls-5" points="161.26 1354.99 46.99 1424.18 204.14 1367.46 161.26 1354.99"/><polygon class="cls-5" points="256.87 1407.48 267.6 1385.92 204.14 1367.47 204.14 1367.46 46.99 1424.18 254.29 1406.95 256.87 1407.48"/><polygon class="cls-5" points="254.29 1406.95 46.99 1424.18 256.75 1407.7 256.87 1407.48 254.29 1406.95"/><polygon class="cls-4" points="254.25 1321.14 303.71 1312.43 298.42 1323.95 298.63 1323.96 470.11 1120.55 277.88 1258.5 254.25 1321.14"/><polygon class="cls-4" points="301.79 1324.16 470.11 1120.55 298.63 1323.96 301.79 1324.16"/><polygon class="cls-4" points="328.76 1325.87 470.11 1120.55 301.79 1324.16 328.76 1325.87"/><polygon class="cls-4" points="301.79 1324.16 293.12 1334.65 292.62 1335.65 364.57 1335.14 470.11 1120.55 328.76 1325.87 301.79 1324.16"/><polygon class="cls-5" points="517.01 1334.06 470.11 1120.55 364.57 1335.14 517.01 1334.06"/><polygon class="cls-5" points="254.25 1321.14 298.42 1323.95 303.71 1312.43 254.25 1321.14"/><polygon class="cls-5" points="292.29 1335.65 204.14 1367.47 267.6 1385.92 292.62 1335.65 292.29 1335.65"/><polygon class="cls-7" points="298.42 1323.95 298.15 1324.54 298.63 1323.96 298.42 1323.95"/><polygon class="cls-4" points="298.63 1323.96 298.15 1324.54 293.12 1334.65 301.79 1324.16 298.63 1323.96"/><polygon class="cls-4" points="293.12 1334.65 292.29 1335.65 292.62 1335.65 293.12 1334.65"/><polygon class="cls-4" points="364.57 1335.14 292.62 1335.65 267.6 1385.92 330.58 1404.24 364.57 1335.14"/><polygon class="cls-4" points="267.6 1385.92 256.87 1407.48 310.51 1418.51 330.58 1404.24 267.6 1385.92"/><polygon class="cls-4" points="256.87 1407.48 256.75 1407.7 219 1483.56 310.51 1418.51 256.87 1407.48"/><polygon class="cls-5" points="330.58 1404.24 470.56 1444.96 488.78 1443.91 546.21 1466.96 517.01 1334.06 364.57 1335.14 330.58 1404.24"/><polygon class="cls-6" points="310.51 1418.51 219 1483.56 546.21 1466.96 310.51 1418.51"/><polygon class="cls-8" points="330.58 1404.24 310.51 1418.51 546.21 1466.96 470.56 1444.96 330.58 1404.24"/><polygon class="cls-5" points="470.56 1444.96 546.21 1466.96 488.78 1443.91 470.56 1444.96"/><polygon class="cls-4" points="544.74 1526.22 653.36 1698.09 568.24 1546.21 544.74 1526.22"/><polygon class="cls-4" points="562.73 1536.39 550.24 1525.75 555.81 1524.03 555.31 1523.14 544.74 1526.22 568.24 1546.21 562.73 1536.39"/><polygon class="cls-4" points="550.24 1525.75 562.73 1536.39 555.81 1524.03 550.24 1525.75"/><polygon class="cls-4" points="595.99 1511.63 595.89 1511.32 555.31 1523.14 555.81 1524.03 595.99 1511.63"/><polygon class="cls-4" points="595.99 1511.63 555.81 1524.03 562.73 1536.39 618.12 1583.56 595.99 1511.63"/><polygon class="cls-4" points="562.73 1536.39 568.24 1546.21 586.03 1561.34 586.03 1561.35 620.11 1590.01 618.12 1583.56 562.73 1536.39"/><path class="cls-4" d="M632.18,1645.52s-1.2,5.35-3,5.75S586.35,1562,586,1561.35h0l-17.79-15.14,85.12,151.89L620.11,1590Z"/><path class="cls-5" d="M629.16,1651.26c1.82-.4,3-5.75,3-5.75L620.11,1590,586,1561.35C586.35,1562,627.35,1651.66,629.16,1651.26Z"/><polygon class="cls-4" points="615.89 1505.5 595.89 1511.32 595.99 1511.63 615.89 1505.5"/><polygon class="cls-4" points="618.12 1583.56 618.71 1584.07 681.64 1486.34 615.93 1505.48 615.89 1505.5 595.99 1511.63 618.12 1583.56"/><polygon class="cls-4" points="618.12 1583.56 620.11 1590.01 662.14 1525.06 688.5 1484.34 681.64 1486.34 618.71 1584.07 618.12 1583.56"/><polygon class="cls-6" points="620.11 1590.01 653.36 1698.09 660.44 1546.97 620.11 1590.01"/><path class="cls-6" d="M670.08,1576s-8.66-44-7.93-51l-42,65,40.33-43-7.08,151.13,19.18-116.64Z"/><path class="cls-4" d="M670.08,1576l2.46,5.43,16-97.11-26.36,40.72C661.42,1532,670.08,1576,670.08,1576Z"/><polygon class="cls-7" points="682.89 1635.19 682.9 1635.19 699.47 1599.91 699.41 1599.37 697.92 1594.91 697.83 1594.66 684.01 1606.83 672.53 1581.46 653.36 1698.09 666.61 1644.13 682.89 1635.19"/><polygon class="cls-5" points="666.61 1644.13 653.36 1698.09 682.89 1635.19 666.61 1644.13"/><polygon class="cls-5" points="710.17 1631.45 706.99 1621.95 682.9 1635.19 682.89 1635.19 653.36 1698.09 709.26 1632.05 710.17 1631.45"/><polygon class="cls-5" points="710.17 1631.45 709.26 1632.05 653.36 1698.09 710.21 1631.55 710.17 1631.45"/><polygon class="cls-4" points="684.01 1606.83 695.99 1589.72 697.83 1594.66 697.89 1594.6 688.5 1484.34 672.53 1581.46 684.01 1606.83"/><polygon class="cls-4" points="698.88 1593.73 688.5 1484.34 697.89 1594.6 698.88 1593.73"/><polygon class="cls-4" points="707.32 1586.31 688.5 1484.34 698.88 1593.73 707.32 1586.31"/><polygon class="cls-4" points="698.88 1593.73 699.41 1599.37 699.56 1599.81 720.57 1578.5 688.5 1484.34 707.32 1586.31 698.88 1593.73"/><polygon class="cls-5" points="765.09 1533.35 688.5 1484.34 720.57 1578.5 765.09 1533.35"/><polygon class="cls-5" points="684.01 1606.83 697.83 1594.66 695.99 1589.72 684.01 1606.83"/><polygon class="cls-5" points="699.47 1599.91 682.9 1635.19 706.99 1621.95 699.56 1599.81 699.47 1599.91"/><polygon class="cls-7" points="697.83 1594.66 697.92 1594.91 697.89 1594.6 697.83 1594.66"/><polygon class="cls-4" points="697.89 1594.6 697.92 1594.91 699.41 1599.37 698.88 1593.73 697.89 1594.6"/><polygon class="cls-4" points="699.41 1599.37 699.47 1599.91 699.56 1599.81 699.41 1599.37"/><polygon class="cls-4" points="720.57 1578.5 699.56 1599.81 706.99 1621.95 730.9 1608.82 720.57 1578.5"/><polygon class="cls-4" points="730.9 1608.82 706.99 1621.95 710.17 1631.45 729.19 1618.92 730.9 1608.82"/><polygon class="cls-4" points="710.17 1631.45 710.21 1631.55 721.41 1664.97 729.19 1618.92 710.17 1631.45"/><polygon class="cls-5" points="730.9 1608.82 784.05 1579.62 789.1 1573.96 812.77 1563.85 765.09 1533.35 720.57 1578.5 730.9 1608.82"/><polygon class="cls-6" points="721.41 1664.97 812.77 1563.85 729.19 1618.92 721.41 1664.97"/><polygon class="cls-8" points="730.9 1608.82 729.19 1618.92 812.77 1563.85 784.05 1579.62 730.9 1608.82"/><polygon class="cls-5" points="784.05 1579.62 812.77 1563.85 789.1 1573.96 784.05 1579.62"/><polygon class="cls-4" points="1963.65 656.91 1935.77 643.71 2085.29 781.48 1963.65 656.91"/><polygon class="cls-4" points="1955.79 648.86 1940.96 641.83 1945.89 638.72 1945.18 637.99 1935.77 643.71 1963.65 656.91 1955.79 648.86"/><polygon class="cls-4" points="1940.96 641.83 1955.79 648.86 1945.89 638.72 1940.96 641.83"/><polygon class="cls-4" points="1981.48 616.31 1981.3 616.04 1945.18 637.99 1945.89 638.72 1981.48 616.31"/><polygon class="cls-4" points="1981.48 616.31 1945.89 638.72 1955.79 648.86 2021.52 680.03 1981.48 616.31"/><polygon class="cls-4" points="1984.76 666.91 2025.12 685.74 2021.52 680.03 1955.79 648.86 1963.65 656.91 1984.76 666.91 1984.76 666.91"/><path class="cls-4" d="M2051.18,736.21s.23,5.48-1.42,6.33-64.51-75-65-75.63h0l-21.11-10,121.64,124.57-60.18-95.74Z"/><path class="cls-5" d="M2049.76,742.54c1.65-.86,1.42-6.33,1.42-6.33l-26.07-50.46-40.35-18.83C1985.25,667.5,2048.11,743.4,2049.76,742.54Z"/><polygon class="cls-4" points="1999.1 605.22 1981.3 616.04 1981.48 616.31 1999.1 605.22"/><polygon class="cls-4" points="2021.52 680.03 2022.22 680.36 2057.62 569.65 1999.13 605.2 1999.1 605.22 1981.48 616.31 2021.52 680.03"/><polygon class="cls-4" points="2021.52 680.03 2025.12 685.74 2048.85 612.11 2063.72 565.94 2057.62 569.65 2022.22 680.36 2021.52 680.03"/><polygon class="cls-6" points="2025.12 685.74 2085.29 781.48 2052.89 633.7 2025.12 685.74"/><path class="cls-6" d="M2069.74,659.26S2050,619,2048.85,612.11l-23.73,73.64,27.77-52,32.4,147.78-11.77-117.62Z"/><path class="cls-4" d="M2069.74,659.26l3.78,4.61-9.8-97.93-14.88,46.17C2050,619,2069.74,659.26,2069.74,659.26Z"/><polygon class="cls-7" points="2097.48 713.07 2097.48 713.07 2104.32 674.69 2104.13 674.19 2101.53 670.27 2101.38 670.05 2091.19 685.39 2073.52 663.87 2085.29 781.48 2084.08 725.93 2097.48 713.07"/><polygon class="cls-5" points="2084.08 725.93 2085.29 781.48 2097.48 713.07 2084.08 725.93"/><polygon class="cls-5" points="2122.85 702.37 2117.31 694.03 2097.48 713.07 2097.48 713.07 2085.29 781.48 2122.13 703.19 2122.85 702.37"/><polygon class="cls-5" points="2122.13 703.19 2085.29 781.48 2122.91 702.46 2122.85 702.37 2122.13 703.19"/><polygon class="cls-4" points="2091.19 685.39 2098.32 665.76 2101.38 670.05 2101.43 669.98 2063.72 565.94 2073.52 663.87 2091.19 685.39"/><polygon class="cls-4" points="2102.15 668.88 2063.72 565.94 2101.43 669.98 2102.15 668.88"/><polygon class="cls-4" points="2108.37 659.52 2063.72 565.94 2102.15 668.88 2108.37 659.52"/><polygon class="cls-4" points="2102.15 668.88 2104.13 674.19 2104.39 674.57 2119.15 648.54 2063.72 565.94 2108.37 659.52 2102.15 668.88"/><polygon class="cls-5" points="2150.41 593.37 2063.72 565.94 2119.15 648.54 2150.41 593.37"/><polygon class="cls-5" points="2098.32 665.76 2091.19 685.39 2101.38 670.05 2098.32 665.76"/><polygon class="cls-5" points="2097.48 713.07 2117.31 694.03 2104.39 674.57 2104.32 674.69 2097.48 713.07"/><polygon class="cls-7" points="2101.43 669.98 2101.38 670.05 2101.53 670.27 2101.43 669.98"/><polygon class="cls-4" points="2104.13 674.19 2102.15 668.88 2101.43 669.98 2101.53 670.27 2104.13 674.19"/><polygon class="cls-4" points="2104.39 674.57 2104.13 674.19 2104.32 674.69 2104.39 674.57"/><polygon class="cls-4" points="2136.99 675.14 2119.15 648.54 2104.39 674.57 2117.31 694.03 2136.99 675.14"/><polygon class="cls-4" points="2122.85 702.37 2137.97 685.33 2136.99 675.14 2117.31 694.03 2122.85 702.37"/><polygon class="cls-4" points="2122.85 702.37 2122.91 702.46 2142.41 731.82 2137.97 685.33 2122.85 702.37"/><polygon class="cls-5" points="2136.99 675.14 2180.74 633.14 2184.14 626.36 2204.38 610.45 2150.41 593.37 2119.15 648.54 2136.99 675.14"/><polygon class="cls-6" points="2142.41 731.82 2204.38 610.45 2137.97 685.33 2142.41 731.82"/><polygon class="cls-8" points="2136.99 675.14 2137.97 685.33 2204.38 610.45 2180.74 633.14 2136.99 675.14"/><polygon class="cls-5" points="2180.74 633.14 2204.38 610.45 2184.14 626.36 2180.74 633.14"/><polygon class="cls-4" points="2416.43 1237.97 2494.13 1108.61 2421.84 1215.73 2416.43 1237.97"/><polygon class="cls-4" points="2417.17 1222.65 2414.28 1234.48 2411.29 1231.37 2410.86 1231.99 2416.43 1237.97 2421.84 1215.73 2417.17 1222.65"/><polygon class="cls-4" points="2414.28 1234.48 2417.17 1222.65 2411.29 1231.37 2414.28 1234.48"/><polygon class="cls-4" points="2389.66 1208.87 2389.48 1209.04 2410.86 1231.99 2411.29 1231.37 2389.66 1208.87"/><polygon class="cls-4" points="2389.66 1208.87 2411.29 1231.37 2417.17 1222.65 2429.96 1170.19 2389.66 1208.87"/><polygon class="cls-4" points="2417.17 1222.65 2421.84 1215.73 2425.94 1198.88 2425.94 1198.88 2433.57 1166.72 2429.96 1170.19 2417.17 1222.65"/><path class="cls-4" d="M2466.34,1140.2s3.95-1,4.82.08-44.86,58.16-45.22,58.6h0l-4.1,16.84,72.29-107.12-60.55,58.11Z"/><path class="cls-5" d="M2471.16,1140.28c-.87-1.07-4.82-.08-4.82-.08l-32.77,26.53-7.63,32.16C2426.3,1198.44,2472,1141.35,2471.16,1140.28Z"/><polygon class="cls-4" points="2378.95 1197.72 2389.48 1209.04 2389.66 1208.87 2378.95 1197.72"/><polygon class="cls-4" points="2429.96 1170.19 2430.09 1169.63 2344.3 1160.52 2378.92 1197.7 2378.95 1197.72 2389.66 1208.87 2429.96 1170.19"/><polygon class="cls-4" points="2429.96 1170.19 2433.57 1166.72 2376.48 1160.53 2340.69 1156.64 2344.3 1160.52 2430.09 1169.63 2429.96 1170.19"/><polygon class="cls-6" points="2433.57 1166.72 2494.13 1108.61 2391.57 1154.35 2433.57 1166.72"/><path class="cls-6" d="M2407.62,1138.26s-26.27,20.42-31.14,22.27l57.09,6.19-42-12.37,102.55-45.74-83.73,26.21Z"/><path class="cls-4" d="M2407.62,1138.26l2.78-3.44-69.71,21.83,35.79,3.88C2381.34,1158.68,2407.62,1138.26,2407.62,1138.26Z"/><polygon class="cls-7" points="2442.57 1110.02 2442.57 1110.02 2413.64 1110.81 2413.31 1111.02 2410.85 1113.5 2410.72 1113.64 2423.39 1118.74 2410.4 1134.82 2494.13 1108.61 2453.93 1117.83 2442.57 1110.02"/><polygon class="cls-5" points="2453.93 1117.83 2494.13 1108.61 2442.57 1110.02 2453.93 1117.83"/><polygon class="cls-5" points="2430.98 1093.18 2425.75 1098.46 2442.57 1110.02 2442.57 1110.02 2494.13 1108.61 2431.69 1093.59 2430.98 1093.18"/><polygon class="cls-5" points="2430.98 1093.18 2431.69 1093.59 2494.13 1108.61 2431.04 1093.13 2430.98 1093.18"/><polygon class="cls-4" points="2423.39 1118.74 2408.05 1116.51 2410.72 1113.64 2410.65 1113.62 2340.69 1156.64 2410.4 1134.82 2423.39 1118.74"/><polygon class="cls-4" points="2409.75 1113.26 2340.69 1156.64 2410.65 1113.62 2409.75 1113.26"/><polygon class="cls-4" points="2402.01 1110.14 2340.69 1156.64 2409.75 1113.26 2402.01 1110.14"/><polygon class="cls-4" points="2409.75 1113.26 2413.31 1111.02 2413.55 1110.78 2392.41 1103.96 2340.69 1156.64 2402.01 1110.14 2409.75 1113.26"/><polygon class="cls-5" points="2347.62 1089.51 2340.69 1156.64 2392.41 1103.96 2347.62 1089.51"/><polygon class="cls-5" points="2423.39 1118.74 2410.72 1113.64 2408.05 1116.51 2423.39 1118.74"/><polygon class="cls-5" points="2413.64 1110.81 2442.57 1110.02 2425.75 1098.46 2413.55 1110.78 2413.64 1110.81"/><polygon class="cls-7" points="2410.72 1113.64 2410.85 1113.5 2410.65 1113.62 2410.72 1113.64"/><polygon class="cls-4" points="2410.65 1113.62 2410.85 1113.5 2413.31 1111.02 2409.75 1113.26 2410.65 1113.62"/><polygon class="cls-4" points="2413.31 1111.02 2413.64 1110.81 2413.55 1110.78 2413.31 1111.02"/><polygon class="cls-4" points="2392.41 1103.96 2413.55 1110.78 2425.75 1098.46 2409.06 1086.99 2392.41 1103.96"/><polygon class="cls-4" points="2409.06 1086.99 2425.75 1098.46 2430.98 1093.18 2416.33 1084.75 2409.06 1086.99"/><polygon class="cls-4" points="2430.98 1093.18 2431.04 1093.13 2449.45 1074.55 2416.33 1084.75 2430.98 1093.18"/><polygon class="cls-5" points="2409.06 1086.99 2371.97 1061.5 2366.53 1060.04 2351.93 1047.73 2347.62 1089.51 2392.41 1103.96 2409.06 1086.99"/><polygon class="cls-6" points="2449.45 1074.55 2351.93 1047.73 2416.33 1084.75 2449.45 1074.55"/><polygon class="cls-8" points="2409.06 1086.99 2416.33 1084.75 2351.93 1047.73 2371.97 1061.5 2409.06 1086.99"/><polygon class="cls-5" points="2371.97 1061.5 2351.93 1047.73 2366.53 1060.04 2371.97 1061.5"/><polygon class="cls-4" points="1719.36 820.89 1840.28 730.6 1732.8 802.35 1719.36 820.89"/><polygon class="cls-4" points="1725.85 806.99 1718.7 816.85 1717.1 812.83 1716.47 813.25 1719.36 820.89 1732.8 802.35 1725.85 806.99"/><polygon class="cls-4" points="1718.7 816.85 1725.85 806.99 1717.1 812.83 1718.7 816.85"/><polygon class="cls-4" points="1705.61 783.81 1705.38 783.9 1716.47 813.25 1717.1 812.83 1705.61 783.81"/><polygon class="cls-4" points="1717.1 812.83 1725.85 806.99 1757.56 763.28 1705.61 783.81 1717.1 812.83"/><polygon class="cls-4" points="1732.8 802.35 1742.97 788.31 1742.97 788.31 1762.22 761.44 1757.56 763.28 1725.85 806.99 1732.8 802.35"/><path class="cls-4" d="M1802.59,749.3s4,.58,4.43,1.9-63.55,36.83-64,37.1h0l-10.17,14,107.48-71.75-78.06,30.84Z"/><path class="cls-5" d="M1807,751.21c-.4-1.32-4.43-1.9-4.43-1.9l-40.37,12.14L1743,788.31C1743.47,788,1807.42,752.53,1807,751.21Z"/><polygon class="cls-4" points="1699.92 769.43 1705.38 783.9 1705.61 783.81 1699.92 769.43"/><polygon class="cls-4" points="1757.56 763.28 1757.9 762.82 1681.95 721.88 1699.91 769.4 1699.92 769.43 1705.61 783.81 1757.56 763.28"/><polygon class="cls-4" points="1757.9 762.82 1757.56 763.28 1762.22 761.44 1711.73 734.08 1680.08 716.93 1681.95 721.88 1757.9 762.82"/><polygon class="cls-6" points="1762.22 761.44 1840.28 730.6 1728.04 734.08 1762.22 761.44"/><path class="cls-6" d="M1749,725.27s-32.05,8.95-37.25,8.81l50.49,27.36L1728,734.08l112.24-3.48-87.41-7.46Z"/><path class="cls-4" d="M1749,725.27l3.88-2.13-72.78-6.21,31.65,17.15C1716.93,734.22,1749,725.27,1749,725.27Z"/><polygon class="cls-7" points="1792.03 712.37 1792.03 712.37 1764.96 702.15 1764.57 702.21 1761.36 703.58 1761.17 703.66 1770.97 713.18 1752.86 723.14 1840.28 730.6 1799.58 723.9 1792.03 712.37"/><polygon class="cls-5" points="1799.58 723.9 1840.28 730.6 1792.03 712.37 1799.58 723.9"/><polygon class="cls-5" points="1787.68 692.4 1780.84 695.31 1792.03 712.37 1792.03 712.37 1840.28 730.6 1788.18 693.04 1787.68 692.4"/><polygon class="cls-5" points="1788.18 693.04 1840.28 730.6 1787.76 692.37 1787.68 692.4 1788.18 693.04"/><polygon class="cls-4" points="1770.97 713.18 1757.62 705.3 1761.17 703.66 1761.13 703.62 1680.08 716.93 1752.86 723.14 1770.97 713.18"/><polygon class="cls-4" points="1760.43 702.93 1680.08 716.93 1761.13 703.62 1760.43 702.93"/><polygon class="cls-4" points="1754.44 697.12 1680.08 716.93 1760.43 702.93 1754.44 697.12"/><polygon class="cls-4" points="1760.43 702.93 1764.57 702.21 1764.88 702.08 1747.9 687.76 1680.08 716.93 1754.44 697.12 1760.43 702.93"/><polygon class="cls-5" points="1711.92 657.42 1680.08 716.93 1747.9 687.76 1711.92 657.42"/><polygon class="cls-5" points="1757.62 705.3 1770.97 713.18 1761.17 703.66 1757.62 705.3"/><polygon class="cls-5" points="1792.03 712.37 1780.84 695.31 1764.88 702.08 1764.96 702.15 1792.03 712.37"/><polygon class="cls-7" points="1761.13 703.62 1761.17 703.66 1761.36 703.58 1761.13 703.62"/><polygon class="cls-4" points="1764.57 702.21 1760.43 702.93 1761.13 703.62 1761.36 703.58 1764.57 702.21"/><polygon class="cls-4" points="1764.88 702.08 1764.57 702.21 1764.96 702.15 1764.88 702.08"/><polygon class="cls-4" points="1769.74 678.37 1747.9 687.76 1764.88 702.08 1780.84 695.31 1769.74 678.37"/><polygon class="cls-4" points="1787.68 692.4 1777.31 679.05 1769.74 678.37 1780.84 695.31 1787.68 692.4"/><polygon class="cls-4" points="1787.68 692.4 1787.76 692.37 1811.84 682.15 1777.31 679.05 1787.68 692.4"/><polygon class="cls-5" points="1769.74 678.37 1745.07 640.73 1740.59 637.32 1731.74 620.38 1711.92 657.42 1747.9 687.76 1769.74 678.37"/><polygon class="cls-6" points="1811.84 682.15 1731.74 620.38 1777.31 679.05 1811.84 682.15"/><polygon class="cls-8" points="1769.74 678.37 1777.31 679.05 1731.74 620.38 1745.07 640.73 1769.74 678.37"/><polygon class="cls-5" points="1745.07 640.73 1731.74 620.38 1740.59 637.32 1745.07 640.73"/><polygon class="cls-4" points="1474.54 2316.4 1571.65 2243.89 1485.33 2301.51 1474.54 2316.4"/><polygon class="cls-4" points="1479.76 2305.24 1474.01 2313.15 1472.73 2309.92 1472.22 2310.26 1474.54 2316.4 1485.33 2301.51 1479.76 2305.24"/><polygon class="cls-4" points="1474.01 2313.15 1479.76 2305.24 1472.73 2309.92 1474.01 2313.15"/><polygon class="cls-4" points="1463.5 2286.62 1463.32 2286.69 1472.22 2310.26 1472.73 2309.92 1463.5 2286.62"/><polygon class="cls-4" points="1463.5 2286.62 1472.73 2309.92 1479.76 2305.24 1505.22 2270.13 1463.5 2286.62"/><polygon class="cls-4" points="1479.76 2305.24 1485.33 2301.51 1493.5 2290.24 1493.51 2290.24 1508.96 2268.66 1505.22 2270.13 1479.76 2305.24"/><path class="cls-4" d="M1541.39,2258.91s3.24.46,3.56,1.53-51,29.58-51.44,29.8h0l-8.17,11.27,86.32-57.62L1509,2268.66Z"/><path class="cls-5" d="M1544.94,2260.44c-.32-1.06-3.56-1.53-3.56-1.53l-32.42,9.75-15.46,21.58C1493.91,2290,1545.27,2261.5,1544.94,2260.44Z"/><polygon class="cls-4" points="1458.93 2275.08 1463.32 2286.69 1463.5 2286.62 1458.93 2275.08"/><polygon class="cls-4" points="1505.22 2270.13 1505.49 2269.76 1444.5 2236.89 1458.92 2275.05 1458.93 2275.08 1463.5 2286.62 1505.22 2270.13"/><polygon class="cls-4" points="1505.22 2270.13 1508.96 2268.66 1468.42 2246.68 1443 2232.91 1444.5 2236.89 1505.49 2269.76 1505.22 2270.13"/><polygon class="cls-6" points="1508.96 2268.66 1571.65 2243.89 1481.51 2246.68 1508.96 2268.66"/><path class="cls-6" d="M1498.33,2239.61s-25.74,7.19-29.92,7.08l40.55,22-27.45-22,90.14-2.79-70.2-6Z"/><path class="cls-4" d="M1498.33,2239.61l3.12-1.71-58.45-5,25.42,13.78C1472.59,2246.79,1498.33,2239.61,1498.33,2239.61Z"/><polygon class="cls-7" points="1532.9 2229.25 1532.9 2229.25 1511.17 2221.03 1510.85 2221.09 1508.27 2222.18 1508.13 2222.25 1515.99 2229.9 1501.45 2237.89 1571.65 2243.89 1538.97 2238.51 1532.9 2229.25"/><polygon class="cls-5" points="1538.97 2238.51 1571.65 2243.89 1532.9 2229.25 1538.97 2238.51"/><polygon class="cls-5" points="1529.42 2213.21 1523.92 2215.54 1532.9 2229.25 1532.9 2229.25 1571.65 2243.89 1529.82 2213.72 1529.42 2213.21"/><polygon class="cls-5" points="1529.42 2213.21 1529.82 2213.72 1571.65 2243.89 1529.47 2213.19 1529.42 2213.21"/><polygon class="cls-4" points="1515.99 2229.9 1505.27 2223.57 1508.13 2222.25 1508.09 2222.22 1443 2232.91 1501.45 2237.89 1515.99 2229.9"/><polygon class="cls-4" points="1507.53 2221.67 1443 2232.91 1508.09 2222.22 1507.53 2221.67"/><polygon class="cls-4" points="1502.72 2217 1443 2232.91 1507.53 2221.67 1502.72 2217"/><polygon class="cls-4" points="1507.53 2221.67 1510.85 2221.09 1511.1 2220.98 1497.47 2209.48 1443 2232.91 1502.72 2217 1507.53 2221.67"/><polygon class="cls-5" points="1468.57 2185.12 1443 2232.91 1497.47 2209.48 1468.57 2185.12"/><polygon class="cls-5" points="1515.99 2229.9 1508.13 2222.25 1505.27 2223.57 1515.99 2229.9"/><polygon class="cls-5" points="1511.17 2221.03 1532.9 2229.25 1523.92 2215.54 1511.1 2220.98 1511.17 2221.03"/><polygon class="cls-7" points="1508.13 2222.25 1508.27 2222.18 1508.09 2222.22 1508.13 2222.25"/><polygon class="cls-4" points="1508.09 2222.22 1508.27 2222.18 1510.85 2221.09 1507.53 2221.67 1508.09 2222.22"/><polygon class="cls-4" points="1510.85 2221.09 1511.17 2221.03 1511.1 2220.98 1510.85 2221.09"/><polygon class="cls-4" points="1497.47 2209.48 1511.1 2220.98 1523.92 2215.54 1515.01 2201.94 1497.47 2209.48"/><polygon class="cls-4" points="1515.01 2201.94 1523.92 2215.54 1529.42 2213.21 1521.09 2202.49 1515.01 2201.94"/><polygon class="cls-4" points="1529.42 2213.21 1529.47 2213.19 1548.81 2204.98 1521.09 2202.49 1529.42 2213.21"/><polygon class="cls-5" points="1515.01 2201.94 1495.19 2171.71 1491.59 2168.97 1484.49 2155.37 1468.57 2185.12 1497.47 2209.48 1515.01 2201.94"/><polygon class="cls-6" points="1548.81 2204.98 1484.49 2155.37 1521.09 2202.49 1548.81 2204.98"/><polygon class="cls-8" points="1515.01 2201.94 1521.09 2202.49 1484.49 2155.37 1495.19 2171.71 1515.01 2201.94"/><polygon class="cls-5" points="1495.19 2171.71 1484.49 2155.37 1491.59 2168.97 1495.19 2171.71"/><polygon class="cls-4" points="682.79 176.51 785.71 5.27 689.96 147.06 682.79 176.51"/><polygon class="cls-4" points="683.78 156.22 679.95 171.89 675.98 167.76 675.42 168.59 682.79 176.51 689.96 147.06 683.78 156.22"/><polygon class="cls-4" points="679.95 171.89 683.78 156.22 675.98 167.76 679.95 171.89"/><polygon class="cls-4" points="647.36 137.96 647.12 138.19 675.42 168.59 675.98 167.76 647.36 137.96"/><polygon class="cls-4" points="647.36 137.96 675.98 167.76 683.78 156.22 700.73 86.77 647.36 137.96"/><polygon class="cls-4" points="683.78 156.22 689.96 147.06 695.39 124.76 695.39 124.76 705.51 82.18 700.73 86.77 683.78 156.22"/><path class="cls-4" d="M748.9,47.08s5.22-1.31,6.38.11-59.41,77-59.89,77.57h0L690,147.06,785.71,5.27,705.51,82.18Z"/><path class="cls-5" d="M755.28,47.19c-1.15-1.42-6.38-.11-6.38-.11L705.51,82.18,695.4,124.76C695.87,124.17,756.44,48.6,755.28,47.19Z"/><polygon class="cls-4" points="633.18 123.2 647.12 138.19 647.36 137.96 633.18 123.2"/><polygon class="cls-4" points="700.73 86.77 700.91 86.03 587.33 73.94 633.15 123.17 633.18 123.2 647.36 137.96 700.73 86.77"/><polygon class="cls-4" points="700.73 86.77 705.51 82.18 629.93 73.96 582.55 68.8 587.33 73.94 700.91 86.03 700.73 86.77"/><polygon class="cls-6" points="705.51 82.18 785.71 5.27 649.91 65.78 705.51 82.18"/><path class="cls-6" d="M671.17,44.49s-34.79,27-41.23,29.47l75.58,8.22-55.6-16.4L785.71,5.27,674.85,39.94Z"/><path class="cls-4" d="M671.17,44.49l3.68-4.56L582.55,68.8,629.93,74C636.37,71.52,671.17,44.49,671.17,44.49Z"/><polygon class="cls-7" points="717.45 7.12 717.45 7.11 679.15 8.15 678.71 8.43 675.46 11.71 675.28 11.9 692.06 18.66 674.85 39.94 785.71 5.27 732.49 17.46 717.45 7.12"/><polygon class="cls-5" points="732.49 17.46 785.71 5.27 717.45 7.12 732.49 17.46"/><polygon class="cls-5" points="717.45 7.12 785.71 5.27 763.84 0 707.1 0 717.45 7.11 717.45 7.12"/><polygon class="cls-5" points="764.27 0 763.84 0 785.71 5.27 764.27 0"/><polygon class="cls-4" points="692.06 18.66 671.75 15.69 675.28 11.9 675.19 11.87 582.55 68.8 674.85 39.94 692.06 18.66"/><polygon class="cls-4" points="674 11.39 582.55 68.8 675.19 11.87 674 11.39"/><polygon class="cls-4" points="663.75 7.26 582.55 68.8 674 11.39 663.75 7.26"/><polygon class="cls-4" points="663.75 7.26 674 11.39 678.71 8.43 679.03 8.11 653.92 0 650.13 0 582.55 68.8 663.75 7.26"/><polygon class="cls-5" points="650.13 0 589.67 0 582.55 68.8 650.13 0"/><polygon class="cls-5" points="692.06 18.66 675.28 11.9 671.75 15.69 692.06 18.66"/><polygon class="cls-5" points="679.15 8.15 717.45 7.11 707.1 0 687.07 0 679.03 8.11 679.15 8.15"/><polygon class="cls-7" points="675.28 11.9 675.46 11.71 675.19 11.87 675.28 11.9"/><polygon class="cls-4" points="675.46 11.71 678.71 8.43 674 11.39 675.19 11.87 675.46 11.71"/><polygon class="cls-4" points="679.03 8.11 678.71 8.43 679.15 8.15 679.03 8.11"/><polygon class="cls-4" points="687.07 0 653.92 0 679.03 8.11 687.07 0"/><polygon class="cls-4" points="437.16 2203.14 462.72 2427.69 451.01 2234.51 437.16 2203.14"/><polygon class="cls-4" points="450.25 2222.03 442.89 2205.34 449.3 2206.31 449.23 2205.18 437.16 2203.14 451.01 2234.51 450.25 2222.03"/><polygon class="cls-4" points="442.89 2205.34 450.25 2222.03 449.3 2206.31 442.89 2205.34"/><polygon class="cls-4" points="495.51 2213.34 495.56 2212.98 449.23 2205.18 449.3 2206.31 495.51 2213.34"/><polygon class="cls-4" points="495.51 2213.34 449.3 2206.31 450.25 2222.03 482.86 2296.03 495.51 2213.34"/><polygon class="cls-4" points="450.25 2222.03 451.01 2234.51 461.49 2258.27 461.49 2258.27 481.72 2303.45 482.86 2296.03 450.25 2222.03"/><path class="cls-4" d="M467,2364.83s-3.78,4.78-5.8,4.29.31-110,.33-110.85h0L451,2234.51l11.71,193.18,19-124.25Z"/><path class="cls-5" d="M461.16,2369.12c2,.48,5.8-4.29,5.8-4.29l14.77-61.38-20.24-45.17C461.47,2259.13,459.15,2368.65,461.16,2369.12Z"/><polygon class="cls-4" points="518.39 2216.82 495.56 2212.98 495.51 2213.34 518.39 2216.82"/><polygon class="cls-4" points="482.86 2296.03 483.2 2296.82 593.46 2229.46 518.44 2216.83 518.39 2216.82 495.51 2213.34 482.86 2296.03"/><polygon class="cls-4" points="482.86 2296.03 481.72 2303.45 555.21 2258.78 601.29 2230.78 593.46 2229.46 483.2 2296.82 482.86 2296.03"/><polygon class="cls-6" points="481.72 2303.45 462.72 2427.69 542.91 2279.88 481.72 2303.45"/><path class="cls-6" d="M538.5,2313.62s12.61-48.22,16.71-54.84l-73.49,44.67,61.19-23.57-80.19,147.82,75.61-107.45Z"/><path class="cls-4" d="M538.5,2313.62l-.17,6.63,63-89.46-46.07,28C551.11,2265.4,538.5,2313.62,538.5,2313.62Z"/><polygon class="cls-7" points="522.71 2379.03 522.71 2379.03 556.36 2351.74 556.57 2351.17 557.23 2345.99 557.25 2345.69 537.54 2351.19 538.33 2320.24 462.72 2427.69 502.09 2380.11 522.71 2379.03"/><polygon class="cls-5" points="502.09 2380.11 462.72 2427.69 522.71 2379.03 502.09 2380.11"/><polygon class="cls-5" points="551.82 2388.48 553.22 2377.44 522.71 2379.03 522.71 2379.03 462.72 2427.69 550.61 2388.64 551.82 2388.48"/><polygon class="cls-5" points="550.61 2388.64 462.72 2427.69 551.8 2388.6 551.82 2388.48 550.61 2388.64"/><polygon class="cls-4" points="537.54 2351.19 557.81 2339.86 557.25 2345.69 557.35 2345.67 601.29 2230.78 538.33 2320.24 537.54 2351.19"/><polygon class="cls-4" points="558.76 2345.28 601.29 2230.78 557.35 2345.67 558.76 2345.28"/><polygon class="cls-4" points="570.79 2341.92 601.29 2230.78 558.76 2345.28 570.79 2341.92"/><polygon class="cls-4" points="558.76 2345.28 556.57 2351.17 556.5 2351.68 587.84 2340.52 601.29 2230.78 570.79 2341.92 558.76 2345.28"/><polygon class="cls-5" points="654.23 2316.87 601.29 2230.78 587.84 2340.52 654.23 2316.87"/><polygon class="cls-5" points="537.54 2351.19 557.25 2345.69 557.81 2339.86 537.54 2351.19"/><polygon class="cls-5" points="556.36 2351.74 522.71 2379.03 553.22 2377.44 556.5 2351.68 556.36 2351.74"/><polygon class="cls-7" points="557.25 2345.69 557.23 2345.99 557.35 2345.67 557.25 2345.69"/><polygon class="cls-4" points="557.35 2345.67 557.23 2345.99 556.57 2351.17 558.76 2345.28 557.35 2345.67"/><polygon class="cls-4" points="556.57 2351.17 556.36 2351.74 556.5 2351.68 556.57 2351.17"/><polygon class="cls-4" points="553.22 2377.44 583.51 2375.86 587.84 2340.52 556.5 2351.68 553.22 2377.44"/><polygon class="cls-4" points="551.82 2388.48 576.91 2385.14 583.51 2375.86 553.22 2377.44 551.82 2388.48"/><polygon class="cls-4" points="551.82 2388.48 551.8 2388.6 546.85 2427.46 576.91 2385.14 551.82 2388.48"/><polygon class="cls-5" points="587.84 2340.52 583.51 2375.86 650.82 2372.35 658.61 2369.13 687.19 2370.46 654.23 2316.87 587.84 2340.52"/><polygon class="cls-6" points="546.85 2427.46 687.19 2370.46 576.91 2385.14 546.85 2427.46"/><polygon class="cls-8" points="583.51 2375.86 576.91 2385.14 687.19 2370.46 650.82 2372.35 583.51 2375.86"/><polygon class="cls-5" points="650.82 2372.35 687.19 2370.46 658.61 2369.13 650.82 2372.35"/><polygon class="cls-4" points="2099.42 2315.69 2188.22 2518.82 2121.45 2341.1 2099.42 2315.69"/><polygon class="cls-4" points="2117.14 2329.62 2105.42 2316.09 2111.7 2315.16 2111.31 2314.11 2099.42 2315.69 2121.45 2341.1 2117.14 2329.62"/><polygon class="cls-4" points="2105.42 2316.09 2117.14 2329.62 2111.7 2315.16 2105.42 2316.09"/><polygon class="cls-4" points="2157.06 2308.4 2157.01 2308.05 2111.31 2314.11 2111.7 2315.16 2157.06 2308.4"/><polygon class="cls-4" points="2157.06 2308.4 2111.7 2315.16 2117.14 2329.62 2169.08 2389.58 2157.06 2308.4"/><polygon class="cls-4" points="2117.14 2329.62 2121.45 2341.1 2138.14 2360.35 2138.14 2360.35 2170.16 2396.86 2169.08 2389.58 2117.14 2329.62"/><path class="cls-4" d="M2174,2458.67s-2.17,5.57-4.2,5.7-31.48-103.21-31.7-104h0l-16.69-19.24,66.77,177.72-18.07-122Z"/><path class="cls-5" d="M2169.84,2464.37c2-.13,4.2-5.7,4.2-5.7l-3.88-61.81-32-36.51C2138.37,2361.16,2167.82,2464.5,2169.84,2464.37Z"/><polygon class="cls-4" points="2179.52 2305.06 2157.01 2308.05 2157.06 2308.4 2179.52 2305.06"/><polygon class="cls-4" points="2169.08 2389.58 2169.63 2390.22 2253.54 2295.23 2179.56 2305.05 2179.52 2305.06 2157.06 2308.4 2169.08 2389.58"/><polygon class="cls-4" points="2169.08 2389.58 2170.16 2396.86 2226.16 2333.76 2261.26 2294.2 2253.54 2295.23 2169.63 2390.22 2169.08 2389.58"/><polygon class="cls-6" points="2170.16 2396.86 2188.22 2518.82 2220.72 2357.09 2170.16 2396.86"/><path class="cls-6" d="M2226.32,2390s-2.1-48.84-.17-56.23l-56,63.1,50.56-39.77-32.49,161.74,39.86-122.57Z"/><path class="cls-4" d="M2226.32,2390l1.76,6.26,33.18-102.05-35.11,39.56C2224.22,2341.15,2226.32,2390,2226.32,2390Z"/><polygon class="cls-7" points="2230.41 2455.88 2230.41 2455.88 2254.07 2420.57 2254.11 2419.99 2253.23 2414.94 2253.17 2414.65 2236.28 2425.49 2228.08 2396.26 2188.22 2518.82 2211.39 2462.84 2230.41 2455.88"/><polygon class="cls-5" points="2211.39 2462.84 2188.22 2518.82 2230.41 2455.88 2211.39 2462.84"/><polygon class="cls-5" points="2260.43 2456.34 2258.56 2445.58 2230.41 2455.88 2230.41 2455.88 2188.22 2518.82 2259.34 2456.83 2260.43 2456.34"/><polygon class="cls-5" points="2259.34 2456.83 2188.22 2518.82 2260.45 2456.45 2260.43 2456.34 2259.34 2456.83"/><polygon class="cls-4" points="2236.28 2425.49 2252.01 2409.02 2253.17 2414.65 2253.25 2414.6 2261.26 2294.2 2228.08 2396.26 2236.28 2425.49"/><polygon class="cls-4" points="2254.46 2413.82 2261.26 2294.2 2253.25 2414.6 2254.46 2413.82"/><polygon class="cls-4" points="2264.77 2407.2 2261.26 2294.2 2254.46 2413.82 2264.77 2407.2"/><polygon class="cls-4" points="2254.46 2413.82 2254.11 2419.99 2254.19 2420.48 2280.35 2400.97 2261.26 2294.2 2264.77 2407.2 2254.46 2413.82"/><polygon class="cls-5" points="2335.76 2359.62 2261.26 2294.2 2280.35 2400.97 2335.76 2359.62"/><polygon class="cls-5" points="2236.28 2425.49 2253.17 2414.65 2252.01 2409.02 2236.28 2425.49"/><polygon class="cls-5" points="2254.07 2420.57 2230.41 2455.88 2258.56 2445.58 2254.19 2420.48 2254.07 2420.57"/><polygon class="cls-7" points="2253.17 2414.65 2253.23 2414.94 2253.25 2414.6 2253.17 2414.65"/><polygon class="cls-4" points="2253.25 2414.6 2253.23 2414.94 2254.11 2419.99 2254.46 2413.82 2253.25 2414.6"/><polygon class="cls-4" points="2254.11 2419.99 2254.07 2420.57 2254.19 2420.48 2254.11 2419.99"/><polygon class="cls-4" points="2258.56 2445.58 2286.49 2435.35 2280.35 2400.97 2254.19 2420.48 2258.56 2445.58"/><polygon class="cls-4" points="2260.43 2456.34 2282.99 2445.95 2286.49 2435.35 2258.56 2445.58 2260.43 2456.34"/><polygon class="cls-4" points="2260.43 2456.34 2260.45 2456.45 2267.03 2494.31 2282.99 2445.95 2260.43 2456.34"/><polygon class="cls-5" points="2280.35 2400.97 2286.49 2435.35 2348.58 2412.62 2354.96 2407.35 2382.14 2400.34 2335.76 2359.62 2280.35 2400.97"/><polygon class="cls-6" points="2267.03 2494.31 2382.14 2400.34 2282.99 2445.95 2267.03 2494.31"/><polygon class="cls-8" points="2286.49 2435.35 2282.99 2445.95 2382.14 2400.34 2348.58 2412.62 2286.49 2435.35"/><polygon class="cls-5" points="2348.58 2412.62 2382.14 2400.34 2354.96 2407.35 2348.58 2412.62"/><polygon class="cls-5" points="2539.2 707 2539.2 495.19 2421.49 652.58 2539.2 707"/><polygon class="cls-4" points="2539.2 281.79 2539.2 269.12 2534.58 272.56 2539.2 281.79"/><polygon class="cls-4" points="2534.58 272.56 2539.2 269.12 2539.2 220.87 2536.11 223.57 2534.58 272.56"/><polygon class="cls-4" points="2539.2 220.87 2539.2 124.72 2536.11 223.57 2539.2 220.87"/><polygon class="cls-5" points="2301.56 445.49 2281.3 475.62 2175.64 538.93 2421.49 652.58 2539.2 495.19 2539.2 281.79 2534.58 272.56 2301.56 445.49"/><polygon class="cls-6" points="2536.11 223.57 2539.2 124.72 2539.2 5.92 2175.64 538.93 2536.11 223.57"/><polygon class="cls-8" points="2534.58 272.56 2536.11 223.57 2175.64 538.93 2301.56 445.49 2534.58 272.56"/><polygon class="cls-5" points="2301.56 445.49 2175.64 538.93 2281.3 475.62 2301.56 445.49"/><polygon class="cls-5" points="702.12 2519.72 695.19 2526.7 713.37 2539.2 781.72 2539.2 703.05 2520.25 702.12 2519.72"/><polygon class="cls-5" points="702.12 2519.72 703.05 2520.25 781.72 2539.2 781.8 2539.2 702.19 2519.64 702.12 2519.72"/><polygon class="cls-4" points="645.9 2539.2 667.26 2539.2 651.04 2533.97 645.9 2539.2"/><polygon class="cls-5" points="591.75 2514.83 589.22 2539.2 645.9 2539.2 651.04 2533.97 591.75 2514.83"/><polygon class="cls-5" points="682.79 2539.2 713.37 2539.2 695.19 2526.7 682.79 2539.2"/><polygon class="cls-4" points="673.1 2511.51 651.04 2533.97 667.26 2539.2 682.79 2539.2 695.19 2526.7 673.1 2511.51"/><polygon class="cls-4" points="673.1 2511.51 695.19 2526.7 702.12 2519.72 682.72 2508.55 673.1 2511.51"/><polygon class="cls-4" points="702.12 2519.72 702.19 2519.64 726.58 2495.05 682.72 2508.55 702.12 2519.72"/><polygon class="cls-5" points="673.1 2511.51 624 2477.75 616.8 2475.82 597.47 2459.51 591.75 2514.83 651.04 2533.97 673.1 2511.51"/><polygon class="cls-6" points="726.58 2495.05 597.47 2459.51 682.72 2508.55 726.58 2495.05"/><polygon class="cls-8" points="673.1 2511.51 682.72 2508.55 597.47 2459.51 624 2477.75 673.1 2511.51"/><polygon class="cls-5" points="624 2477.75 597.47 2459.51 616.8 2475.82 624 2477.75"/><polygon class="cls-4" points="2052.06 2539.2 2076.94 2539.2 1892.02 2464.56 2052.06 2539.2"/><path class="cls-4" d="M1990.46,2539.2h19.12l-.87-.78s-5.25-12.28-2.21-15.66c.75-.84,14.19,5.87,34,16.45h11.57l-160-74.64Z"/><path class="cls-5" d="M2006.5,2522.76c-3,3.38,2.21,15.66,2.21,15.66l.87.78h30.91C2020.69,2528.63,2007.25,2521.92,2006.5,2522.76Z"/><polygon class="cls-6" points="1940.58 2539.2 1990.46 2539.2 1892.02 2464.56 1940.58 2539.2"/><polygon class="cls-6" points="1929.06 2539.2 1940.58 2539.2 1892.02 2464.56 1929.06 2539.2"/><polygon class="cls-7" points="1922.06 2539.2 1929.06 2539.2 1892.02 2464.56 1922.06 2539.2"/><polygon class="cls-5" points="1905.95 2539.2 1922.06 2539.2 1892.02 2464.56 1905.95 2539.2"/><polygon class="cls-5" points="1886.12 2539.2 1905.95 2539.2 1892.02 2464.56 1886.12 2539.2"/><polygon class="cls-5" points="1885.78 2539.2 1886.12 2539.2 1892.02 2464.56 1885.78 2539.2"/></g></pattern><linearGradient id="linear-gradient" y1="54.97" x2="375" y2="54.97" gradientUnits="userSpaceOnUse"><stop offset="0" stop-color="#487fb1"/><stop offset="0.99" stop-color="#5c3960"/></linearGradient></defs><title>navigationBar</title><g class="cls-9"><g id="Layer_2" data-name="Layer 2"><g id="final_main" data-name="final main"><rect class="cls-10" y="2.44" width="375" height="106.89"/><rect class="cls-11" width="375" height="109.93"/><g class="cls-12"><rect class="cls-13" width="375" height="109.93"/></g><line class="cls-14" y1="8.16" x2="375" y2="8.16"/></g></g></g></svg>