<svg xmlns="http://www.w3.org/2000/svg" viewBox="0 0 136.85 25.12"><defs><style>.cls-1{fill:#fff;}</style></defs><title>viewProjectButton_Selected</title><g id="Layer_2" data-name="Layer 2"><g id="final_main" data-name="final main"><path class="cls-1" d="M63.44,8.5H62.07v3.77h1.3A2.64,2.64,0,0,0,65,11.8a1.77,1.77,0,0,0,.65-1.41,1.73,1.73,0,0,0-.56-1.46A2.7,2.7,0,0,0,63.44,8.5Z"/><path class="cls-1" d="M73.09,8.89a2.85,2.85,0,0,0-1.65-.4H70.08V12h1.3A2.92,2.92,0,0,0,73,11.57a1.5,1.5,0,0,0,.64-1.32A1.54,1.54,0,0,0,73.09,8.89Z"/><path class="cls-1" d="M82.65,8.78a2.72,2.72,0,0,0-1.58-.48,2.84,2.84,0,0,0-1.64.5,3.3,3.3,0,0,0-1.13,1.37,4.65,4.65,0,0,0-.41,2,4.6,4.6,0,0,0,.4,1.95,3.22,3.22,0,0,0,1.11,1.35,2.76,2.76,0,0,0,1.59.48,2.8,2.8,0,0,0,1.63-.5,3.31,3.31,0,0,0,1.13-1.38,4.7,4.7,0,0,0,.41-2,4.56,4.56,0,0,0-.4-1.94A3.24,3.24,0,0,0,82.65,8.78Z"/><path class="cls-1" d="M0,0V25.12H136.85V0ZM28.57,16.88H27.35L23.68,7.45,25,7.25l3,7.83,2.86-7.71h1.32Zm6.33,0H33.55V7.36H34.9ZM42,11.52l.18,1H38.76v3.28h4.52l.18,1h-6V7.36h5.87l.18,1h-4.7v3.12Zm11.37,5.36H52.14L50,9.29l-2.07,7.59H46.71L43.88,7.45l1.33-.2,2.13,7.83,2-7.71h1.32l2.1,7.71,2-7.71H56.1ZM66.55,12a3,3,0,0,1-1.35,1,5.15,5.15,0,0,1-1.88.33H62.07v3.5H60.72V7.36h2.73a4.3,4.3,0,0,1,2.61.73,2.6,2.6,0,0,1,1,2.24A2.81,2.81,0,0,1,66.55,12Zm7.78,4.84L72.2,13a6.14,6.14,0,0,1-.88,0H70.08v3.81H68.73V7.36h2.73a4.44,4.44,0,0,1,2.6.7,2.43,2.43,0,0,1,1,2.13,2.67,2.67,0,0,1-.46,1.53,2.76,2.76,0,0,1-1.2,1l2.39,4.2ZM85,14.61a4.56,4.56,0,0,1-1.63,1.79,4.42,4.42,0,0,1-2.36.67,4.31,4.31,0,0,1-3.93-2.38,5.42,5.42,0,0,1-.58-2.53,5.45,5.45,0,0,1,.59-2.55A4.56,4.56,0,0,1,78.7,7.82,4.45,4.45,0,0,1,81,7.14a4.34,4.34,0,0,1,4,2.39,5.42,5.42,0,0,1,.58,2.53A5.46,5.46,0,0,1,85,14.61Zm3.78,1.5a2.54,2.54,0,0,1-.17,1,1.54,1.54,0,0,1-.6.67,4.87,4.87,0,0,1-1.19.51l-.53-1A3.61,3.61,0,0,0,87,17a.81.81,0,0,0,.32-.41,2.29,2.29,0,0,0,.09-.74V7.36h1.34Zm7-4.59.18,1H92.49v3.28H97l.18,1h-6V7.36H97l.18,1h-4.7v3.12Zm8.09,5.4a6.39,6.39,0,0,1-1.34.16,4.34,4.34,0,0,1-2.42-.65,4.09,4.09,0,0,1-1.51-1.76A5.89,5.89,0,0,1,98,12.18a5.82,5.82,0,0,1,.55-2.57,4.29,4.29,0,0,1,1.58-1.79,4.37,4.37,0,0,1,2.39-.65,6.42,6.42,0,0,1,1.23.15,3.74,3.74,0,0,1,1.19.43l-.42,1a8.72,8.72,0,0,0-1-.31,5,5,0,0,0-1-.08A2.73,2.73,0,0,0,101,8.8a3.25,3.25,0,0,0-1.11,1.37,4.73,4.73,0,0,0-.41,2,4.91,4.91,0,0,0,.36,1.9,3.17,3.17,0,0,0,1,1.37,2.59,2.59,0,0,0,1.59.5,4.92,4.92,0,0,0,2.09-.42l.52,1A5,5,0,0,1,103.82,16.92Zm6.08-8.49v8.46h-1.36V8.43h-3.09V7.36H113l.18,1.06Z"/></g></g></svg>